<?xml version="1.0" encoding="utf-8"?>
<!DOCTYPE svg PUBLIC "-//W3C//DTD SVG 1.0//EN" "http://www.w3.org/TR/2001/REC-SVG-20010904/DTD/svg10.dtd">
<svg version="1.0" xmlns="http://www.w3.org/2000/svg" width="1024px" height="1024px" viewBox="0 0 1024 1024" preserveAspectRatio="xMidYMid meet">
 <g fill="#fffefe">
  <path d="M0 512 l0 -512 512 0 512 0 0 512 0 512 -512 0 -512 0 0 -512z m315.2 373.8 l0.3 -8.3 3.8 -0.9 3.7 -1 0 -49.3 0 -49.3 -21.2 0.2 -21.3 0.3 -0.3 49.3 -0.2 49.2 10 0 10 0 0 9 0 9 7.5 0 7.4 0 0.3 -8.2z m-75.2 -27.3 l0 -17.5 2.6 -1 c1.4 -0.6 4.3 -1 6.5 -1 l3.9 0 0 18.5 0 18.5 7.5 0 7.5 0 0 -49.6 0 -49.5 -20.5 0.3 c-17 0.2 -20.7 0.6 -21.5 1.8 -0.6 0.9 -1 21 -1 49.3 l0 47.7 7.5 0 7.5 0 0 -17.5z m139 -32 l0 -49.5 -3.7 0 c-2.1 0 -5.5 0.3 -7.5 0.6 l-3.8 0.7 0 40.8 0 40.9 -6.5 0 -6.5 0 0 -41.5 0 -41.5 -6.3 0 c-3.6 0 -6.8 0.5 -7.5 1.2 -0.9 0.9 -1.2 13.3 -1.2 49.5 l0 48.3 21.5 0 21.5 0 0 -49.5z m46 41.5 l0 -8 -9.5 0 -9.5 0 0 -15.5 0 -15.5 8.9 0 c9.9 0 10.1 -0.2 10.1 -8 0 -5.4 -0.8 -5.9 -10 -6.2 l-8.5 -0.3 -0.3 -11.2 -0.3 -11.3 9.6 0 9.5 0 0 -7.6 0 -7.5 -15.5 0.3 c-8.5 0.2 -15.8 0.7 -16.4 1.3 -1.1 1.1 -1.3 10.8 -1.2 61.3 l0.1 36.2 16.5 0 16.5 0 0 -8z m28 -10.6 l0 -18.5 4.2 0.3 4.3 0.3 2.8 10.5 c1.5 5.8 3.7 14 4.8 18.3 l2.1 7.7 5.4 0 5.4 0 -0.2 -49.2 -0.3 -49.3 -7.2 -0.3 -7.3 -0.3 0 16.1 0 16 -3.3 0 -3.2 0 -2.9 -11.2 c-1.6 -6.2 -3.6 -13.5 -4.3 -16.1 l-1.4 -4.8 -6.7 0.3 -6.7 0.3 -0.3 49.3 -0.2 49.2 7.5 0 7.5 0 0 -18.6z m74.2 -23.1 l0.3 -41.8 9.3 -0.3 9.2 -0.3 0 -7.4 0 -7.5 -21.4 0 c-11.7 0 -23.4 0.3 -26 0.6 l-4.6 0.7 0 7.3 0 7.3 8.8 -0.2 8.7 -0.2 0.3 41.8 0.2 41.7 7.5 0 7.5 0 0.2 -41.7z m94.8 -7.9 l0 -49.7 -6.1 0.7 c-3.3 0.3 -6.5 0.8 -7 1.2 -0.5 0.3 -0.9 17.6 -0.9 41 0 45.7 0.8 42.1 -8.5 40.9 l-5.5 -0.6 0 -9 0 -9 -7.2 0.3 -7.3 0.3 -0.3 15.5 c-0.1 8.5 0 16 0.2 16.7 0.4 1 5.3 1.3 21.6 1.3 l21 0 0 -49.6z m57 0.1 l0 -49.5 -15.9 0 c-8.7 0 -18.6 0.3 -22 0.6 l-6.1 0.7 0 48.8 0 48.9 22 0 22 0 0 -49.5z m56.8 28.4 l0.2 -20.6 -4 -4.5 c-5.4 -6.2 -5.4 -9.6 0 -15.4 l4 -4.4 0 -14.2 c0 -7.9 -0.3 -15.3 -0.6 -16.5 -0.6 -2.3 -0.7 -2.3 -22 -2.3 l-21.4 0 0 49.5 0 49.5 21.8 -0.2 21.7 -0.3 0.3 -20.6z m56.2 -9.4 l0 -30.4 -14.2 -0.3 -14.3 -0.3 0 -11 0 -11 6.3 -0.3 6.2 -0.3 0 5.1 0 5 8 0 8 0 0 -12.5 0 -12.5 -17.7 0 c-9.8 0 -19.5 0.3 -21.5 0.6 l-3.8 0.7 0 25.3 0 25.4 13.5 0 13.5 0 0 16 0 16 -2.7 0 c-1.6 0 -4.5 -0.3 -6.5 -0.6 -3.6 -0.6 -3.8 -0.8 -3.8 -4.6 l0 -3.9 -7.2 0.3 -7.3 0.3 -0.3 10.4 c-0.1 5.8 0 11.1 0.2 11.8 0.4 1 5.2 1.3 22.1 1.3 l21.5 0 0 -30.5z m-399.5 -139.5 l21 -42.9 36 -0.1 36.1 0 12.6 -26.2 c6.9 -14.5 17.7 -37 24.1 -50 l11.6 -23.8 -34.5 0 -34.4 0 0 -3.8 c0 -3 3.2 -10.5 13.2 -30.8 7.2 -14.8 13.1 -27.3 13.1 -27.9 0 -0.5 -2.3 -5 -5 -10 -2.7 -4.9 -17.8 -32.7 -33.4 -61.7 -15.6 -29.1 -28.6 -52.8 -28.9 -52.8 -0.3 0 -42.4 84 -93.6 186.5 l-93.2 186.5 67.2 0 67.2 0 20.9 -43z m261.6 -227.7 c-74.5 -149 -136.7 -273.1 -138.1 -276 -1.4 -2.9 -2.7 -5.2 -3 -5.2 -0.3 -0.1 -17 32.9 -37.2 73.2 l-36.6 73.2 2 3.5 c4.9 8.4 53.8 99.5 63.4 117.9 l3.9 7.5 4 -8.7 4 -8.7 4.5 0.1 4.5 0 45.8 92.2 c26.7 53.7 45.8 93.3 45.7 94.8 0 1.9 -0.7 2.8 -2.2 3.3 -1.3 0.3 -17.6 0.6 -36.4 0.6 l-34 0 -15.1 31.8 c-8.3 17.4 -19.4 40.6 -24.7 51.5 l-9.5 19.7 147.3 0 147.3 0 -135.6 -270.7z"/>
  <path d="M295 826 l0 -34.1 6.8 0.3 6.7 0.3 0.3 31.5 c0.1 17.3 0 32.5 -0.3 33.8 -0.5 2 -1.1 2.2 -7 2.2 l-6.5 0 0 -34z"/>
  <path d="M240.7 823.3 c-0.4 -0.3 -0.7 -7.5 -0.7 -16 l0 -15.3 6.5 0 6.5 0 0 16 0 16 -5.8 0 c-3.2 0 -6.2 -0.3 -6.5 -0.7z"/>
  <path d="M650 826 l0 -34 7 0 7 0 0 34 0 34 -7 0 -7 0 0 -34z"/>
  <path d="M707 845 l0 -16 6.5 0 6.5 0 0 16 0 16 -6.5 0 -6.5 0 0 -16z"/>
  <path d="M706.6 805.2 c-1 -13 -0.9 -13.2 7 -13.2 l6.4 0 0 11.5 0 11.5 -6.4 0 -6.3 0 -0.7 -9.8z"/>
 </g>
 <g fill="#095494">
  <path d="M296.9 896.5 c-0.3 -0.2 -0.4 -4.3 -0.2 -9 l0.4 -8.5 -10.1 0 -10 0 0.2 -52.2 0.3 -52.3 24.3 -0.3 24.2 -0.2 0 52.3 0 52.3 -3.7 1 -3.8 0.9 -0.3 8.3 -0.3 8.2 -10.3 0 c-5.6 0 -10.5 -0.2 -10.7 -0.5z m8.6 -41.7 c0.3 -1.3 0.4 -15.1 0.3 -30.8 l-0.3 -28.5 -3.7 -0.3 -3.8 -0.3 0 31 0 31.1 3.5 0 c2.8 0 3.6 -0.5 4 -2.2z"/>
  <path d="M222 828.3 c0 -30.2 0.4 -51.4 1 -52.3 0.8 -1.2 4.9 -1.6 24.5 -1.8 l23.5 -0.3 0 52.5 0 52.6 -10.5 0 -10.5 0 0 -18.5 c0 -10.8 -0.4 -18.5 -0.9 -18.5 -0.5 0 -2.1 0.4 -3.5 1 l-2.6 1 0 17.5 0 17.5 -10.5 0 -10.5 0 0 -50.7z m28 -20.3 l0 -13 -3.5 0 -3.5 0 0 12.3 c0 6.8 0.3 12.7 0.7 13 0.3 0.4 1.9 0.7 3.5 0.7 l2.8 0 0 -13z"/>
  <path d="M333 827.7 c0 -38.6 0.3 -51.6 1.2 -52.5 0.8 -0.8 4.6 -1.2 10.5 -1.2 l9.3 0 0 41.5 0 41.5 3.5 0 3.5 0 0 -40.9 0 -40.8 3.8 -0.7 c2 -0.3 6.7 -0.6 10.5 -0.6 l6.7 0 0 52.5 0 52.5 -24.5 0 -24.5 0 0 -51.3z"/>
  <path d="M388.8 842.8 c-0.2 -46.2 0.2 -66 1.4 -67.3 0.5 -0.6 8.8 -1.1 19.3 -1.3 l18.5 -0.3 0 10.5 0 10.6 -9.5 0 -9.6 0 0.3 8.3 0.3 8.2 8.5 0.3 c5.2 0.2 8.7 0.8 9.2 1.5 0.9 1.4 1 13.2 0.2 16.5 -0.6 2.1 -1.1 2.2 -9.5 2.2 l-8.9 0 0 12.5 0 12.5 9.5 0 9.5 0 0 11 0 11 -19.5 0 -19.5 0 -0.2 -36.2z"/>
  <path d="M435.2 826.8 l0.3 -52.3 9.7 -0.3 9.7 -0.3 1.1 3.8 c0.6 2.1 2.6 9.4 4.5 16.3 l3.3 12.5 0.1 -16.3 0.1 -16.3 10.3 0.3 10.2 0.3 0.3 52.3 0.2 52.2 -8.4 0 -8.4 0 -2.1 -7.7 c-1.1 -4.3 -3.3 -12.5 -4.8 -18.2 -4.3 -16 -5.3 -14.6 -5.3 7.3 l0 18.6 -10.5 0 -10.5 0 0.2 -52.2z"/>
  <path d="M508.8 837.3 l-0.3 -41.8 -8.7 0.4 -8.8 0.3 0 -10.5 0 -10.4 4.6 -0.7 c2.6 -0.3 15.6 -0.6 29 -0.6 l24.4 0 0 10.5 0 10.4 -9.2 0.3 -9.3 0.3 -0.3 41.8 -0.2 41.7 -10.5 0 -10.5 0 -0.2 -41.7z"/>
  <path d="M576.4 877.7 c-0.2 -0.7 -0.3 -9.6 -0.2 -19.7 l0.3 -18.5 10.3 -0.3 10.2 -0.3 0 9 0 8.9 3.3 0.5 c1.7 0.2 3.5 0.3 4 0 0.4 -0.2 0.7 -18.6 0.7 -40.8 0 -28.7 0.3 -40.6 1.1 -41.1 0.6 -0.4 5.1 -0.9 10 -1.2 l8.9 -0.5 0 52.7 0 52.6 -24 0 c-18.7 0 -24.2 -0.3 -24.6 -1.3z"/>
  <path d="M632 827.1 l0 -51.8 6.1 -0.7 c3.4 -0.3 14.7 -0.6 25 -0.6 l18.9 0 0 52.5 0 52.5 -25 0 -25 0 0 -51.9z m29 -1.1 l0 -31 -4 0 -4 0 0 31 0 31 4 0 4 0 0 -31z"/>
  <path d="M689 826.5 l0 -52.5 24.4 0 24.4 0 0.6 2.3 c0.3 1.2 0.6 10 0.6 19.5 l0 17.2 -4.1 4.5 -4.1 4.5 4.1 4.6 4.1 4.7 -0.2 23.6 -0.3 23.6 -24.7 0.3 -24.8 0.2 0 -52.5z m28 18.5 l0 -13 -3.5 0 -3.5 0 0 13 0 13 3.5 0 3.5 0 0 -13z m0 -41.5 l0 -8.5 -3.4 0 c-1.9 0 -3.6 0.6 -3.9 1.3 -0.2 0.7 -0.2 4.5 0.1 8.5 l0.5 7.2 3.3 0 3.4 0 0 -8.5z"/>
  <path d="M745.4 877.7 c-0.2 -0.7 -0.3 -7.4 -0.2 -14.8 l0.3 -13.4 10.3 -0.3 10.2 -0.3 0 4.1 c0 3.3 0.3 4 1.9 4 1.1 0 2.6 0.3 3.5 0.6 1.4 0.5 1.6 -1 1.6 -12.5 l0 -13.1 -13.5 0 -13.5 0 0 -28.4 0 -28.3 3.8 -0.7 c2 -0.3 13 -0.6 24.5 -0.6 l20.7 0 0 15.5 0 15.5 -11 0 -11 0 0 -5.1 0 -5 -3.2 0.3 -3.3 0.3 0 8 0 8 14.3 0.3 14.2 0.3 0 33.4 0 33.5 -24.5 0 c-19.2 0 -24.7 -0.3 -25.1 -1.3z"/>
  <path d="M231 751.8 c0.1 -0.2 11.3 -22.6 25.1 -49.8 13.7 -27.2 56.8 -113.3 95.6 -191.2 48.3 -96.8 71.2 -141.8 72.3 -141.8 1 0 10.9 17.5 28.3 49.8 14.7 27.3 30.6 56.9 35.3 65.6 l8.5 16 -5.7 12 c-3.1 6.7 -9.5 19.6 -14.1 28.8 -4.5 9.2 -8.3 17.2 -8.3 17.8 0 0.7 12.4 1 35.9 1 l36 0 -14.6 29.8 c-8 16.3 -19.5 40.2 -25.6 53 l-11.1 23.2 -36 0 -36.1 0.1 -21 42.9 -20.9 43 -71.8 0 c-39.5 0 -71.8 -0.1 -71.8 -0.2z"/>
 </g>
 <g fill="#279ae1">
  <path d="M632.4 796.5 c0 -6 0.1 -8.4 0.3 -5.2 0.2 3.2 0.2 8.1 0 11 -0.2 2.9 -0.3 0.3 -0.3 -5.8z"/>
  <path d="M484.3 782 c0 -4.1 0.2 -5.8 0.4 -3.7 0.2 2 0.2 5.4 0 7.5 -0.2 2 -0.4 0.3 -0.4 -3.8z"/>
  <path d="M490 751.1 c0 -0.4 7.6 -16.5 16.8 -35.7 9.3 -19.2 20.8 -43.3 25.7 -53.6 l8.9 -18.8 34 0 c18.8 0 35.1 -0.3 36.3 -0.6 2 -0.6 -0.8 -6.6 -43.5 -92.4 -29.6 -59.5 -46.2 -91.9 -47.2 -91.9 -1 -0.1 -3.3 3.9 -6.5 10.9 -2.7 6 -5.3 11 -5.7 11 -0.7 0 -2.4 -3.1 -19.3 -35 -5.4 -10.2 -18.9 -35.1 -29.9 -55.5 -11 -20.3 -21.1 -39 -22.4 -41.5 l-2.5 -4.5 38.4 -76.7 c25.5 -51.1 38.9 -76.8 39.9 -76.8 0.9 0 2.9 3 5 7.3 1.9 4 65 130.1 140.2 280.2 75.3 150.2 136.8 273.4 136.8 273.8 0 0.4 -68.6 0.7 -152.5 0.7 -84 0 -152.5 -0.4 -152.5 -0.9z"/>
 </g>
</svg>