<?xml version="1.0" encoding="utf-8"?>
<!DOCTYPE svg PUBLIC "-//W3C//DTD SVG 1.0//EN" "http://www.w3.org/TR/2001/REC-SVG-20010904/DTD/svg10.dtd">
<svg version="1.0" xmlns="http://www.w3.org/2000/svg" width="1024px" height="1024px" viewBox="0 0 1024 1024" preserveAspectRatio="xMidYMid meet">
 <g fill="#ffffff">
  <path d="M0 512 l0 -512 512 0 512 0 0 512 0 512 -512 0 -512 0 0 -512z m612 416 c45.90 -2.60 87.40 -12.45 130.50 -31 33.85 -14.55 75.20 -39.75 103.75 -63.20 18.45 -15.15 39.65 -36.25 54.05 -53.80 22.35 -27.25 39.75 -56.60 50.85 -85.75 5.80 -15.25 10.80 -36.35 12.35 -52.25 3.60 -37.90 -8.55 -71.45 -38 -104.75 -13.60 -15.35 -29.45 -30.20 -63 -59 -42.20 -36.25 -58.70 -53.10 -73.15 -74.80 -6.05 -9.10 -12.40 -23 -15.10 -33.05 -3 -11.05 -3.50 -15.55 -3.45 -30.15 0 -12.50 0.10 -14 1.35 -20.35 6.15 -31.50 25.05 -54.15 51.30 -61.55 3.35 -0.95 5.05 -1.05 14.80 -1.05 10.35 0 11.30 0.05 15.80 1.35 12.45 3.40 23.30 10 34.60 20.85 12.50 12 22.50 26.65 31.65 46.45 12.30 26.60 19.45 54.20 23.15 89.80 1.10 10.50 1.65 12.45 4.35 16.60 2 2.95 4.55 5.10 8.20 6.85 2.15 1 2.95 1.05 18.50 1.05 l16.25 0 2.85 -1.35 c3.70 -1.70 6.95 -5.05 9 -9.30 1.50 -3 1.65 -3.75 1.60 -7.35 -0.05 -4.40 -1.70 -19.60 -3.25 -30.25 -7.90 -54.90 -30.25 -107.50 -60.15 -141.65 -4.60 -5.20 -18.85 -19.25 -23.05 -22.70 -25.40 -20.75 -49.95 -31.15 -77.90 -33.10 -36.55 -2.55 -77.05 17.90 -103.65 52.30 -7.80 10.15 -13.95 20.80 -19.40 33.65 -7.15 16.80 -10.55 29.50 -12.55 46.65 -0.90 7.95 -1.05 23.95 -0.25 31.85 3.35 33.20 16.20 65.30 37.85 94.25 18.10 24.25 51 55.55 100.40 95.50 21.15 17.10 27.65 23 33.40 30.35 5.30 6.75 10.50 17.10 13 25.90 3.95 13.55 3.85 35.65 -0.20 51.75 -5.65 22.35 -18 46.85 -34.75 68.80 -6.60 8.70 -19.40 23.05 -27.05 30.45 -24.65 23.80 -53.90 44.45 -85.60 60.45 -22.90 11.55 -40.60 18.20 -67.05 25.20 -21.35 5.70 -48.85 8.85 -76.50 8.85 -41 0 -70.75 -4.70 -111.75 -17.60 -7.10 -2.20 -8.35 -2.45 -11.10 -2.20 -5.35 0.45 -11.20 4.15 -14.40 9 -0.95 1.40 -3.70 7.85 -6.15 14.30 -2.50 6.45 -5.65 14.60 -7.05 18.10 -1.55 3.85 -2.70 7.45 -2.85 9.25 -0.85 8.20 5.55 18.30 14.20 22.30 3.80 1.75 21.75 7.55 34.35 11.10 13.95 3.90 33.30 7.95 47.50 9.95 9.95 1.40 27.90 3.25 33.75 3.45 9.55 0.40 30.10 0.30 38 -0.15z m-226.80 -27.90 c6 -2.05 9.35 -4.20 14.35 -9.10 3.50 -3.45 4.70 -5.05 6.40 -8.50 2 -4.10 2.15 -4.75 4.05 -17.75 1.10 -7.40 2.45 -16.40 3 -20 0.50 -3.55 3 -20.20 5.50 -37 2.50 -16.75 5.30 -35.65 6.25 -42 0.95 -6.30 3.20 -21.50 5 -33.75 3.45 -23.45 8.35 -56 9.25 -61.50 0.55 -3.50 6 -40.40 8.75 -59.50 0.95 -6.45 3.20 -21.85 5 -34.25 1.80 -12.35 4.95 -34.10 7 -48.25 3.35 -23.20 6.35 -43.75 12.25 -84.25 3.55 -24.30 6.60 -44 6.85 -44.25 0.10 -0.15 32.45 -0.30 71.85 -0.40 l71.65 -0.20 4.95 -15.30 c2.70 -8.45 7.35 -22.55 10.25 -31.35 l5.25 -16 -77.40 -0.15 -77.40 -0.10 0 -1.65 c0 -1.80 8.55 -61 16.25 -113.10 1 -6.60 3 -20.30 4.50 -30.50 1.50 -10.15 3.35 -22.75 4.10 -27.95 l1.40 -9.45 12.50 0.30 c6.85 0.15 15.75 0.65 19.75 1.05 10.80 1.10 26.75 3.25 30.75 4.10 1.95 0.40 6.75 1.40 10.70 2.20 15.65 3.25 37.80 9.85 52.55 15.60 13.75 5.40 38.20 17.35 47.50 23.20 8.60 5.45 11.05 6.45 15.75 6.45 3.45 0 4.45 -0.20 7.35 -1.60 4.50 -2.10 7 -4.55 16.05 -15.60 4.15 -5.10 10.35 -12.50 13.65 -16.40 8.50 -9.90 10.20 -13.90 8.45 -19.95 -1.90 -6.65 -4.60 -9.50 -14.95 -15.85 -30.20 -18.70 -63.40 -33.10 -101.55 -44.10 -31 -8.90 -64.65 -14.30 -100.50 -16.05 -16.40 -0.80 -22.60 -0.75 -42.25 0.35 -15 0.80 -22.90 1.60 -44.75 4.45 -4.10 0.55 -13 2.10 -19.75 3.45 -41.70 8.45 -85.85 24.40 -119.25 43.05 -35.55 19.85 -58.05 36.25 -87.10 63.55 -23.45 22.05 -44.70 47.35 -62.85 74.95 -8.75 13.20 -17.80 28.55 -22.75 38.35 -17.30 34.40 -28.60 66.10 -36.55 102.90 -4.05 18.60 -5.80 30.55 -8.25 55.50 -1 10.35 -1.50 45.80 -0.80 56.25 2.75 41.70 8.80 72.90 21.55 111.10 18.05 54.05 45.30 102.15 81.70 144.40 28.65 33.30 53.45 55.75 85.05 77.15 22.10 14.95 55.10 32.40 87.25 46.10 8.35 3.60 14.15 3.95 21.70 1.35z m309.20 -145.55 c2.10 -0.85 8.15 -3.05 13.35 -4.95 5.25 -1.95 15 -5.70 21.75 -8.35 6.75 -2.65 13.95 -5.50 16.05 -6.30 l3.75 -1.45 -2.60 -12.65 c-1.45 -6.90 -5.10 -23.75 -8.10 -37.35 -3.05 -13.60 -6.30 -28.70 -7.30 -33.50 -1.70 -8.20 -4.60 -21.45 -8.55 -39.50 -3.10 -14 -13.75 -64.10 -15.75 -74 -0.50 -2.60 -1.75 -8.45 -2.75 -13 -1 -4.55 -2.55 -11.95 -3.50 -16.50 -0.95 -4.55 -2.95 -14.10 -4.45 -21.25 -1.55 -7.15 -3.25 -15.25 -3.80 -18 -0.60 -2.75 -1.80 -8.50 -2.70 -12.75 l-1.65 -7.75 -32.70 -0.10 c-18 -0.10 -52.05 0.05 -75.70 0.25 l-43 0.35 -1.80 7.25 c-1 4 -4 16.15 -6.65 27 -2.65 10.85 -7.35 30.35 -10.50 43.25 -14.85 60.95 -34.65 139.15 -51.30 202.70 -1.15 4.20 -1.95 7.80 -1.80 7.95 0.50 0.50 54.65 16.25 60.10 17.45 0.95 0.20 1.15 -0.30 2.60 -6.70 0.85 -3.80 2.65 -11.75 4.05 -17.65 1.35 -5.90 4.75 -20.75 7.55 -33 7.65 -33.60 12.50 -54.55 13.05 -56.60 l0.50 -1.90 56.45 0 56.50 0 0.25 1.15 c0.65 2.95 10.85 52.95 17.75 87.10 6.45 32 6.05 30.25 6.60 30.25 0.25 0 2.15 -0.65 4.30 -1.45z"/>
  <path d="M334.65 788 c-2.50 -0.50 -4.30 -1.40 -8.90 -4.40 -14.15 -9.25 -40.15 -32.30 -56.45 -50.10 -15.80 -17.25 -22.85 -26.25 -35.15 -44.75 -10.10 -15.20 -22.30 -37.80 -29 -53.75 -13.75 -32.65 -23.10 -69.25 -26.35 -103.15 -1.90 -19.45 -2.30 -49.65 -0.85 -64.85 0.25 -2.90 0.75 -8.05 1.05 -11.50 2.15 -24.20 7 -46.35 17.10 -77.50 11.55 -35.75 34.35 -76.10 60.40 -106.80 15.05 -17.75 25 -27.65 42.50 -42.25 6.50 -5.40 19.65 -14.85 27 -19.45 18.85 -11.75 40.70 -23.10 58.45 -30.35 19.35 -7.90 49.75 -17.65 55 -17.65 1.50 0 1.55 0.10 1.55 2.15 0 1.20 -0.90 8.15 -2 15.40 -1.05 7.25 -2.75 18.60 -3.75 25.20 -1 6.60 -2.35 15.70 -3.05 20.25 -2.65 17.80 -4.90 32.75 -8.25 55.75 -1.90 13.20 -4.25 29.05 -5.20 35.25 -0.95 6.20 -2 13.50 -2.40 16.25 l-0.65 5 -61.55 0.15 -61.60 0.10 -0.50 1.90 c-2 7.50 -13.55 59.50 -13.55 60.95 0 0.05 28.70 0.15 63.75 0.15 l63.75 0 0 2.40 c0 1.30 -0.90 8.55 -2 16.10 -1.10 7.55 -2.25 15.20 -2.50 17 -0.25 1.80 -1.05 7.10 -1.75 11.75 -1.45 9.60 -4.95 33.25 -7.50 50.75 -0.95 6.45 -2.60 17.85 -3.70 25.25 -5.50 37.25 -16.35 111 -18.55 126 -3.90 26.75 -7.30 49.85 -10.55 71.50 -1.65 11 -3.75 25.30 -4.70 31.75 -4.40 29.90 -4.35 29.80 -8.30 33.15 -2.95 2.55 -6.85 3.30 -11.80 2.35z"/>
  <path d="M568.50 577.95 c0 -1.15 0.25 -2.90 0.50 -3.90 0.30 -1 2.75 -11.45 5.50 -23.30 7.50 -32.35 11.55 -48.95 12.05 -49.45 0.45 -0.50 50.65 0.25 51.20 0.80 0.65 0.65 15.35 74.55 15.15 76.30 l-0.15 1.35 -42.10 0.15 -42.15 0.10 0 -2.05z"/>
 </g>
 <g fill="#1d3e5c">
  <path d="M572.50 929.65 c-12.50 -0.50 -37.70 -3.70 -52.75 -6.70 -17.95 -3.65 -26.35 -5.85 -47 -12.25 -15.50 -4.85 -18.80 -6.35 -22.90 -10.65 -5.40 -5.60 -7.65 -11.35 -7.25 -18.50 0.25 -3.70 0.60 -5.20 2.90 -10.80 1.45 -3.60 4.60 -11.80 7.10 -18.25 4.75 -12.50 6.55 -15.80 10 -18.65 4.05 -3.25 7.15 -4.45 12.15 -4.70 4.30 -0.25 4.85 -0.15 12.50 2.25 40.45 12.75 70.90 17.60 110.25 17.60 43.95 0 82.85 -7.95 123.70 -25.30 19 -8.10 47.10 -23.95 64.70 -36.55 34.30 -24.55 61.45 -52.85 80 -83.30 9.65 -15.75 17.10 -33.05 21.05 -48.60 3.95 -15.80 4.05 -35.45 0.20 -48.75 -2.50 -8.80 -7.70 -19.15 -13 -25.90 -5.75 -7.35 -12.25 -13.25 -33.40 -30.35 -49.40 -39.95 -82.30 -71.25 -100.40 -95.50 -21.70 -29.05 -34.50 -61.05 -37.85 -94.50 -0.85 -8.35 -0.70 -26.30 0.25 -34.50 2.05 -17.35 5.40 -29.90 12.55 -46.75 14.95 -35.25 40.55 -61.85 73.75 -76.65 23.75 -10.60 50.25 -12.45 76.15 -5.35 19 5.25 35.90 14.35 54.05 29.15 4.20 3.45 18.45 17.50 23.05 22.70 29.90 34.15 52.25 86.75 60.15 141.65 1.80 12.35 3.20 26.20 3.25 31.75 0.05 5.25 0 5.65 -1.60 8.85 -2.05 4.25 -5.30 7.60 -9 9.30 l-2.85 1.35 -17.75 0 c-17.10 0 -17.85 -0.05 -20 -1.05 -3.65 -1.75 -6.20 -3.90 -8.20 -6.85 -2.70 -4.15 -3.25 -6.10 -4.35 -16.60 -3.70 -35.60 -10.85 -63.20 -23.15 -89.80 -9.15 -19.80 -19.15 -34.45 -31.65 -46.45 -11.30 -10.90 -22.20 -17.45 -34.60 -20.85 -4.40 -1.25 -5.55 -1.35 -14.30 -1.35 -8.20 0 -10 0.15 -13.30 1.05 -6.20 1.75 -11.85 4.20 -16.50 7.15 -17.95 11.30 -30.10 30.35 -34.80 54.40 -1.20 6.20 -1.35 8 -1.35 18.85 -0.05 10.40 0.10 12.80 1.05 18 5.65 30.20 20.50 53.75 54.65 86.50 7.90 7.55 18.10 16.65 36 32 33.55 28.80 49.40 43.65 63 59 36.05 40.80 46.05 80.85 33.45 134.25 -6.30 26.65 -18.15 53.10 -36.60 81.50 -13.50 20.70 -27.65 37.90 -47.80 58 -20.50 20.40 -37.45 34.20 -61.05 49.75 -46.25 30.50 -86.45 48.65 -133.75 60.45 -19.55 4.85 -44.70 8.50 -67.75 9.80 -7.90 0.45 -31.40 0.55 -41 0.15z"/>
  <path d="M368.75 902.60 c-3.90 -1.05 -5.60 -1.75 -20 -8.20 -26.85 -12.10 -54.85 -27.35 -74 -40.25 -31.60 -21.40 -56.40 -43.85 -85.05 -77.15 -17.80 -20.65 -33.05 -42.15 -46.45 -65.50 -30.15 -52.50 -50.55 -116.10 -55.50 -173 -1.65 -18.85 -1.85 -25.20 -1.55 -46.85 0.30 -21.10 0.55 -25.45 2.80 -46.15 3.95 -37.15 16.45 -83.30 31.90 -118 10.90 -24.45 19.45 -40.10 33.90 -62 18.15 -27.60 39.40 -52.90 62.85 -74.95 29.05 -27.30 51.55 -43.70 87.10 -63.55 33.40 -18.65 77.55 -34.60 119.25 -43.05 11.70 -2.35 17.30 -3.20 35.25 -5.40 24.70 -3.05 50.65 -4.05 74.50 -2.85 44.20 2.20 82.50 9.35 122.50 23 22.70 7.70 48.50 19.05 66.25 29.20 10.55 5.95 20.85 12.60 22.90 14.65 4.25 4.20 6.35 9.80 6 15.65 -0.35 5.20 -2 8.20 -9.10 16.45 -3.30 3.90 -9.50 11.30 -13.65 16.40 -9.05 11.05 -11.55 13.50 -16.05 15.60 -3.15 1.50 -3.70 1.60 -8.85 1.60 -5.15 0 -5.70 -0.10 -8.75 -1.55 -1.80 -0.85 -5.60 -3.05 -8.50 -4.90 -6.30 -3.95 -25.90 -13.95 -36.25 -18.45 -20 -8.70 -42.90 -16 -63.80 -20.35 -3.95 -0.80 -8.75 -1.80 -10.70 -2.20 -10.10 -2.15 -34.85 -4.75 -49 -5.15 l-11 -0.30 -1.40 9.45 c-0.75 5.20 -2.60 17.80 -4.10 27.95 -1.50 10.20 -3.50 23.90 -4.50 30.50 -3.40 22.85 -16.25 111.10 -16.25 111.65 0 0.05 34.95 0.10 77.65 0.10 42.75 0 77.80 0.10 77.90 0.20 0.15 0.15 -2.35 8.05 -5.55 17.65 -3.15 9.55 -8 24.30 -10.70 32.80 l-5 15.35 -59.50 0.05 c-50.45 0 -83.80 0.25 -84.15 0.60 -0.10 0.15 -4.20 27.20 -6.65 44.10 -5.90 40.50 -8.90 61.05 -12.25 84.25 -2.05 14.15 -5.20 35.90 -7 48.25 -1.80 12.40 -4.05 27.80 -5 34.25 -2.75 19.10 -8.20 56 -8.75 59.50 -0.90 5.50 -5.80 38.05 -9.25 61.50 -1.80 12.25 -4.05 27.45 -5 33.75 -0.95 6.35 -3.75 25.25 -6.25 42 -2.50 16.80 -5 33.45 -5.50 37 -0.55 3.60 -1.90 12.60 -3 20 -1.90 13 -2.05 13.65 -4.05 17.75 -1.70 3.45 -2.90 5.05 -6.40 8.50 -5 4.90 -8.30 7 -14.40 9.15 -5.70 1.95 -12.55 2.30 -17.90 0.95z m-26.45 -116.65 c1.80 -0.65 4.70 -3.50 5.80 -5.65 1.05 -2.05 1.75 -6 5.15 -29.30 0.95 -6.45 3.05 -20.75 4.70 -31.75 3.25 -21.65 6.65 -44.75 10.55 -71.50 2.20 -15 13.05 -88.75 18.55 -126 1.10 -7.40 2.75 -18.80 3.70 -25.25 2.55 -17.50 6.05 -41.15 7.50 -50.75 0.70 -4.65 1.50 -9.95 1.75 -11.75 0.25 -1.80 1.40 -9.45 2.50 -17 1.10 -7.55 2 -14.10 2 -14.60 0 -0.85 -2.80 -0.90 -64 -0.90 -55.05 0 -64 -0.10 -64 -0.70 0 -0.40 0.45 -2.70 1 -5.15 0.55 -2.40 2.15 -9.80 3.55 -16.40 2.40 -11.40 8.40 -37.80 9.50 -41.85 l0.50 -1.90 61.60 -0.10 61.55 -0.15 0.65 -5 c0.40 -2.75 1.45 -10.05 2.40 -16.25 0.95 -6.20 3.30 -22.05 5.20 -35.25 3.35 -22.95 5.55 -37.75 8.25 -55.75 1.65 -10.85 4.20 -27.90 6.80 -45.40 1.15 -7.80 2 -14.25 1.90 -14.35 -0.30 -0.30 -10.10 2.30 -19.60 5.25 -31.90 9.80 -62.45 23.85 -92.30 42.50 -15.70 9.80 -32.85 23.50 -48.45 38.75 -18.80 18.40 -38.30 43.20 -52.15 66.50 -19.50 32.80 -31.75 64.45 -41.65 108 -1.75 7.65 -3.75 21.60 -4.75 32.75 -0.30 3.45 -0.80 8.60 -1.05 11.50 -0.85 9.10 -1.10 32.10 -0.50 43.35 1.40 25.90 4.05 44.20 10 68.35 10.70 43.35 28.35 81.60 54.95 119.05 8.75 12.35 13.55 18.20 26.90 32.75 18.80 20.55 49.50 47.05 61.60 53.20 3.15 1.60 6.85 1.90 9.90 0.75z"/>
  <path d="M688.25 757.90 c-0.25 -0.85 -0.55 -2.40 -6.25 -30.65 -6.65 -32.95 -17.05 -84 -17.75 -87.10 l-0.25 -1.15 -55 0 -54.95 0 -0.50 1.90 c-0.65 2.40 -12.40 53.45 -20.30 88.35 -3.25 14.25 -6.10 26.30 -6.30 26.50 -0.35 0.30 -63.85 -17.95 -64.40 -18.55 -0.30 -0.30 -0.05 -1.30 10.15 -40.45 14.65 -56.30 30.50 -119.25 43.60 -173 3.15 -12.90 7.85 -32.40 10.50 -43.25 2.65 -10.85 5.65 -23 6.65 -27 l1.80 -7.25 30.50 -0.25 c16.80 -0.15 51.50 -0.25 77.20 -0.25 l46.70 0 1.65 7.75 c0.90 4.25 2.10 10 2.70 12.75 0.55 2.75 2.25 10.85 3.80 18 1.50 7.15 3.50 16.70 4.45 21.25 0.95 4.55 2.50 11.95 3.50 16.50 1 4.55 2.25 10.40 2.75 13 2 9.90 12.65 60 15.75 74 3.95 18.05 6.85 31.30 8.55 39.50 1 4.80 4.45 20.80 7.70 35.50 6.65 30.15 10.50 48.35 10.50 49.90 0 0.55 -0.30 1.10 -0.60 1.25 -0.35 0.10 -8.40 3.30 -17.90 7 -9.50 3.75 -20.95 8.15 -25.50 9.80 -4.55 1.65 -10.40 3.80 -13 4.75 -5.35 2 -5.45 2.05 -5.75 1.20z m-37.05 -179.80 c0.10 -0.20 -2.35 -13.05 -5.45 -28.60 -8.25 -41.30 -9.15 -45.55 -9.50 -45.90 -0.50 -0.50 -47.75 -1.30 -48.25 -0.80 -0.45 0.50 -4.50 17.30 -12 49.45 -2.75 11.85 -5.20 22.30 -5.50 23.30 -0.25 1 -0.50 2.05 -0.50 2.40 0 0.65 80.75 0.80 81.20 0.15z"/>
 </g>
</svg>