<?xml version="1.0" encoding="utf-8"?>
<!DOCTYPE svg PUBLIC "-//W3C//DTD SVG 1.0//EN" "http://www.w3.org/TR/2001/REC-SVG-20010904/DTD/svg10.dtd">
<svg version="1.0" xmlns="http://www.w3.org/2000/svg" width="2560px" height="2560px" viewBox="0 0 2560 2560" preserveAspectRatio="xMidYMid meet">
 <g fill="#000000">
  <path d="M1267.3 2070.1 c-2.6 -2.1 -10.6 -8.7 -17.8 -14.5 -32.5 -26.6 -37.2 -30.5 -44.4 -36 -4.2 -3.2 -11.2 -8.8 -15.6 -12.5 -4.4 -3.6 -15.9 -12.9 -25.6 -20.6 -9.6 -7.7 -28.3 -22.6 -41.5 -33.1 -51.8 -41.5 -113.2 -90.4 -192.7 -153.3 l-11.8 -9.4 0.3 -4.1 0.3 -4.1 353.5 -0.5 c194.4 -0.3 355.1 -0.3 357 0 3.2 0.5 3.5 0.8 3.8 4.1 0.2 2.4 -0.3 4.2 -1.4 5.3 -0.9 0.9 -11.1 9.2 -22.7 18.4 -40.1 31.7 -86.6 69 -105.3 84.3 -10.2 8.5 -26.2 21.5 -35.4 28.9 -9.2 7.4 -22.3 18 -29.1 23.6 -24.8 20.1 -40.6 32.9 -52.4 42.2 -22 17.5 -41.9 33.5 -53 42.7 -6 5.1 -20.4 16.7 -31.8 25.8 -19.8 15.9 -21 16.7 -25.2 16.7 -3.5 0 -5.2 -0.7 -9.2 -3.9z m-109.3 -191.6 l0 -49.5 10 0 10 0 0 -7 0 -7 -27 0 -27 0 0 7 0 7 10 0 10 0 0 49.5 0 49.5 7 0 7 0 0 -49.5z m89 42.5 l0 -7 -20 0 -20 0 0 -14.3 0 -14.3 14.6 -8.3 c8 -4.6 14.8 -8.9 15 -9.6 0.3 -0.7 0.4 -3.7 0.2 -6.8 l-0.3 -5.6 -11.3 6.5 c-7.9 4.4 -12.4 6.4 -14.8 6.4 l-3.4 0 0 -19.5 0 -19.5 20 0 20 0 0 -7 0 -7 -27 0 -27 0 0 56.5 0 56.5 27 0 27 0 0 -7z m29 -14.2 l0 -21.3 9.2 -5.2 c6 -3.5 10.2 -5.3 12.4 -5.3 l3.4 0 0 26.5 0 26.5 7 0 7 0 0 -46.7 0 -46.8 -9.7 -9.7 -9.8 -9.8 -17.2 0 -17.3 0 0 56.5 0 56.5 7.5 0 7.5 0 0 -21.2z m71 -26.8 l0 -48 3.3 0 c2.1 0.1 6.4 2 12.7 5.9 l9.5 5.7 0.3 42.2 0.2 42.2 7 0 7 0 0 -42.3 0 -42.2 9.6 -5.8 c9.2 -5.5 15.3 -7.3 15.5 -4.4 0 0.6 0 22.2 -0.1 48 l-0.1 46.7 7.5 0 7.6 0 0 -56.5 0 -56.5 -7.3 0 -7.2 0 -14.8 8.5 c-10.1 5.8 -15.8 8.5 -17.9 8.5 -2.2 0 -7.9 -2.7 -18 -8.5 -14.7 -8.5 -14.7 -8.5 -21.8 -8.5 l-7 0 0 56.5 0 56.5 7 0 7 0 0 -48z"/>
  <path d="M1276 1848.5 l0 -19.5 12.5 0 12.5 0 0 14.3 0 14.4 -9.3 5.1 c-5.8 3.2 -10.5 5.2 -12.5 5.2 l-3.2 0 0 -19.5z"/>
  <path d="M908.8 1735.3 c-1.7 -0.4 -1.8 -10.6 -1.8 -196.3 0 -176.7 -0.2 -196 -1.6 -197.4 -0.8 -0.9 -2.2 -1.6 -3 -1.6 -0.8 0 -1.4 -0.9 -1.4 -2 0 -2 -0.7 -2 -74.5 -2 l-74.5 0 0 154.5 c0 136.7 0.2 154.5 1.5 154.5 1.9 0 2.1 6 0.3 7.8 -0.7 0.7 -3 1.2 -5.3 1.2 -3.5 0 -5.1 -0.8 -11.1 -5.8 -3.8 -3.2 -11.2 -9.2 -16.6 -13.3 -5.3 -4.1 -21.4 -17.1 -35.9 -28.9 -14.4 -11.8 -34.2 -27.8 -43.8 -35.6 -9.7 -7.7 -18.9 -15.5 -20.4 -17.3 l-2.7 -3.3 0 -255.3 0 -255.4 2.2 -2.3 c1.3 -1.3 10 -8.7 19.4 -16.3 9.4 -7.7 23.8 -19.5 32 -26.2 8.2 -6.7 22.6 -18.4 32 -26 9.5 -7.6 24.2 -19.5 32.8 -26.6 12.3 -9.9 16.3 -12.7 18.6 -12.7 l3 0 0 127.4 0 127.3 7.3 0.9 c3.9 0.5 36.7 0.9 72.8 0.9 54.1 0 65.9 -0.2 67.2 -1.4 1.6 -1.2 1.7 -16.1 1.9 -190.9 l0.3 -189.7 12 -9.8 c6.6 -5.4 17.9 -14.4 25 -20 7.2 -5.5 16.8 -13.3 21.5 -17.2 4.7 -3.9 20.2 -16.5 34.5 -28 52.5 -42.2 47.4 -38.5 52.6 -38.5 3.4 0 4.9 0.5 5.3 1.6 0.3 0.9 0.6 235.7 0.6 521.8 0 403.3 -0.3 520.5 -1.2 521.4 -0.9 0.9 -18.6 1.2 -74.3 1.1 -40.1 -0.1 -73.8 -0.3 -74.7 -0.6z"/>
  <path d="M1104.7 1734.8 c-1.6 -1.2 -1.7 -34.7 -1.5 -545.2 l0.3 -544 15 -12.4 c15.2 -12.5 31.3 -25.5 80.5 -65.2 15.1 -12.2 36.2 -29.2 46.9 -37.8 24.7 -20 23.4 -19.2 30.3 -19.2 5.4 0 6 0.3 13.5 6 4.3 3.3 12.6 9.9 18.5 14.8 5.8 4.8 29.9 24.2 53.5 43.1 23.5 19 46.6 37.7 51.3 41.6 4.7 3.9 21 17.2 36.4 29.5 15.3 12.4 28.6 23.5 29.4 24.8 1.4 2.2 1.6 27.6 1.6 262.9 l0.1 260.5 -4.6 4.2 c-4.9 4.4 -15.6 13.2 -52.9 43 -12.9 10.4 -24.8 20.1 -26.3 21.6 l-2.8 2.6 17.2 14.5 c18.9 15.8 36.5 30.3 56.2 46.6 7 5.7 13.2 11.3 13.7 12.3 1.6 3 1.4 394.7 -0.2 395.7 -2 1.2 -104.9 1.6 -106.2 0.3 -1.4 -1.4 -188.2 -1.4 -189.1 0 -1 1.6 -78.7 1.3 -80.8 -0.2z m227.1 -242.8 c0.1 -49 -0.1 -73.3 -0.8 -75.1 -0.6 -1.4 -6.1 -6.5 -12.3 -11.4 -6.2 -4.9 -23.1 -18.9 -37.6 -31 -14.5 -12.1 -27.2 -22.6 -28.2 -23.4 -1.9 -1.3 -1.9 1.1 -1.9 106.3 l0 107.6 40.3 -0.2 40.2 -0.3 0.3 -72.5z m-49.1 -338.1 c7.7 -6.3 20.8 -16.8 29.1 -23.4 8.2 -6.6 15.7 -13.2 16.6 -14.7 1.5 -2.4 1.6 -18.1 1.6 -182.3 0 -200.1 0.7 -182.5 -7.2 -188.6 -6 -4.6 -19 -15.4 -34 -28.2 l-12.7 -10.8 -10.1 8.2 c-5.5 4.4 -11.1 9.4 -12.5 11.1 l-2.5 3 0 225.4 0 225.4 8.8 -6.9 c4.8 -3.8 15.1 -12 22.9 -18.2z"/>
  <path d="M1530.2 1735.4 c-1.2 -0.3 -2.5 -1.3 -3 -2.2 -0.4 -0.9 -0.7 -72.9 -0.7 -159.9 0 -139.3 0.2 -158.4 1.5 -159.7 1.3 -1.3 11.1 -1.5 72.2 -1.7 55.3 -0.1 71.1 0.1 72.3 1.1 1.3 1.1 1.5 10.4 1.5 73.2 l0 72 6.3 -5.4 c3.4 -2.9 8.2 -6.9 10.7 -8.8 2.5 -1.9 11 -8.8 18.9 -15.5 8 -6.6 18.3 -15.1 23 -18.9 21.5 -17.4 56.2 -46.9 57.6 -48.9 1.3 -1.9 1.5 -9.5 1.5 -58.9 0 -34.4 -0.4 -57.7 -1 -59.2 l-1 -2.6 -131.4 0 c-121 0 -131.5 -0.1 -132.7 -1.7 -1.2 -1.3 -1.4 -50.4 -1.4 -312.2 l0 -310.6 5 -0.3 5.1 -0.3 16 13.3 c16.8 13.8 38.1 31 51.3 41.3 4.3 3.3 23.9 19.1 43.6 35 19.7 16 48 38.8 62.9 50.8 14.9 12.1 29.4 23.8 32.1 26.1 4.6 3.9 90 72.5 110.9 89.1 4.9 3.8 15.9 12.8 24.5 19.8 8.6 7.1 25.3 20.7 37.1 30.2 11.8 9.5 22.7 18.5 24.3 20 l2.7 2.8 0 40.3 0 40.3 -2.2 1.5 c-2 1.4 -10.7 1.6 -73.9 1.6 l-71.6 0 -5.9 -5.2 c-15.4 -13.5 -33.6 -28.8 -51.4 -43.3 -10.7 -8.7 -25.6 -21.1 -33 -27.5 -7.4 -6.3 -17 -14.4 -21.2 -17.8 l-7.7 -6.2 0.3 78 c0.3 64.7 0.6 78.2 1.7 79.6 1.3 1.6 10.6 1.7 131.6 1.1 102 -0.4 130.5 -0.3 131.8 0.7 1.6 1.1 1.7 13.6 1.8 177.2 0.2 159.3 0.1 176.1 -1.4 178.1 -2.5 3.5 -60.7 51.5 -125.4 103.3 -15.4 12.3 -34.3 27.6 -42 34 -17.9 14.8 -64.7 52.4 -67.7 54.4 -2 1.3 -14.3 1.5 -86.8 2 -46.5 0.3 -85.5 0.3 -86.8 0z"/>
 </g>
 <g fill="#ffffff">
  <path d="M0 1280 l0 -1280 1280 0 1280 0 0 1280 0 1280 -1280 0 -1280 0 0 -1280z m1298.7 774.3 c11.4 -9.1 25.8 -20.7 31.8 -25.8 11.1 -9.2 31 -25.2 53 -42.7 11.8 -9.3 27.6 -22.1 52.4 -42.2 6.8 -5.6 19.9 -16.2 29.1 -23.6 9.2 -7.4 25.2 -20.4 35.4 -28.9 18.7 -15.3 65.2 -52.6 105.3 -84.3 23.9 -19 24.8 -19.7 23.5 -21 -0.9 -0.9 -705.8 -1.2 -707.3 -0.2 -1.9 1.1 -0.6 2.4 10.9 11.5 78.9 62.6 140.9 111.9 192.6 153.3 13.2 10.5 31.9 25.4 41.5 33.1 9.7 7.7 21.2 17 25.6 20.6 4.4 3.7 11.4 9.3 15.6 12.5 7.2 5.5 11.9 9.4 44.4 36 21 17.2 22.6 18.4 24 18.4 0.8 0 10.8 -7.5 22.2 -16.7z m-243.9 -322.5 c0.9 -0.9 1.2 -117.5 1.2 -518.4 0 -284.5 -0.3 -517.9 -0.6 -518.8 -1.1 -3 -3.9 -1.6 -14.9 7.2 -30.9 24.7 -63.9 51.4 -71.5 57.7 -4.7 3.9 -14.3 11.7 -21.5 17.2 -7.1 5.6 -18.4 14.6 -25 20 l-12 9.8 -0.3 189.7 c-0.2 174.8 -0.3 189.7 -1.9 190.9 -1.3 1.2 -13.6 1.4 -70.2 1.4 -37.7 0 -71.9 -0.4 -75.8 -0.9 l-7.3 -0.9 0 -127.3 0 -127.4 -15.6 12.8 c-8.6 7 -23.3 18.9 -32.8 26.5 -9.4 7.6 -23.8 19.3 -32 26 -8.2 6.7 -22.6 18.5 -32 26.2 -9.4 7.6 -18.1 15 -19.3 16.3 l-2.3 2.3 0 252.4 0 252.3 2.7 3.3 c1.5 1.8 10.7 9.6 20.4 17.3 9.6 7.8 29.4 23.8 43.8 35.6 14.5 11.8 30.6 24.8 35.9 28.9 5.4 4.1 12.8 10.1 16.6 13.3 7.4 6.2 8.6 6.7 10.6 4.3 1 -1.2 1 -1.5 -0.4 -1.5 -1.5 0 -1.6 -12.9 -1.6 -157.5 l0 -157.5 77.5 0 c76.8 0 77.5 0 77.5 2 0 1.1 0.6 2 1.4 2 0.8 0 2.2 0.7 3 1.6 1.4 1.4 1.6 20.7 1.6 197.4 0 185.7 0.1 195.9 1.8 196.3 0.9 0.3 33.2 0.5 71.7 0.6 53.3 0.1 70.4 -0.2 71.3 -1.1z m127.7 0.2 c0.9 -1.4 193.7 -1.4 195.1 0 1.3 1.3 98.2 0.9 100.2 -0.3 1.6 -1 1.8 -386.7 0.2 -389.7 -0.5 -1 -6.7 -6.6 -13.7 -12.3 -48.4 -39.8 -74 -61.5 -74.6 -63.1 -1 -2.4 2.4 -5.7 23 -22.2 38.4 -30.8 55.7 -44.9 60.2 -49 l4.6 -4.2 -0.1 -257.5 c-0.1 -229.4 -0.3 -257.8 -1.6 -259.9 -0.9 -1.3 -14.1 -12.4 -29.4 -24.8 -15.4 -12.3 -31.7 -25.6 -36.4 -29.5 -4.7 -3.9 -27.8 -22.6 -51.3 -41.6 -23.6 -18.9 -47.7 -38.3 -53.5 -43.1 -26.4 -21.6 -28.6 -22.9 -34.3 -19 -1.4 0.9 -11.3 8.8 -22 17.4 -10.7 8.6 -31.8 25.6 -46.9 37.8 -49.2 39.7 -65.3 52.7 -80.5 65.2 l-15 12.4 -0.3 541 c-0.2 507.7 -0.1 541 1.5 542.2 2.1 1.5 73.8 1.8 74.8 0.2z m518.3 -1.6 c3 -2 49.7 -39.5 67.7 -54.4 7.7 -6.4 26.6 -21.7 42 -34 64.7 -51.8 122.9 -99.8 125.4 -103.3 1.5 -2 1.6 -18.4 1.4 -175.2 -0.2 -157 -0.4 -173.1 -1.8 -174.1 -1.2 -0.9 -33.4 -1.1 -131.8 -0.6 -122.7 0.5 -130.3 0.4 -131.6 -1.2 -1.3 -1.5 -1.5 -13.9 -1.8 -81.9 -0.1 -44.1 0 -81 0.3 -81.9 0.3 -1 1.1 -1.8 1.7 -1.8 1.5 0 14.6 10.5 32.7 26 7.4 6.4 22.3 18.8 33 27.5 17.8 14.5 36 29.8 51.4 43.3 l5.9 5.2 68.6 0 c60.5 0 68.9 -0.2 70.9 -1.6 l2.2 -1.5 0 -37.3 0 -37.3 -2.7 -2.8 c-1.6 -1.5 -12.5 -10.5 -24.3 -20 -11.8 -9.5 -28.5 -23.1 -37.1 -30.2 -8.6 -7 -19.6 -16 -24.5 -19.8 -20.9 -16.6 -106.3 -85.2 -110.9 -89.1 -2.7 -2.3 -17.2 -14 -32.1 -26.1 -14.9 -12 -43.2 -34.8 -62.9 -50.8 -19.7 -15.9 -39.3 -31.7 -43.6 -35 -13.2 -10.3 -34.5 -27.5 -51.3 -41.3 -10.9 -9 -16.7 -13.2 -18.1 -13 l-2 0.3 0 307.6 c0 259.2 0.2 307.9 1.4 309.2 1.2 1.6 11.7 1.7 132.7 1.7 l131.4 0 1 2.6 c0.6 1.5 1 25.9 1 62.2 0 52.1 -0.2 60 -1.5 61.9 -1.4 2 -36.1 31.5 -57.6 48.9 -4.7 3.8 -15 12.3 -23 18.9 -7.9 6.7 -16.4 13.6 -18.9 15.5 -2.5 1.9 -7.8 6.3 -11.8 9.7 -7.5 6.5 -9.6 7.4 -10.6 4.7 -0.3 -0.9 -0.6 -33.6 -0.6 -72.9 0 -60.2 -0.2 -71.4 -1.4 -72.4 -1.1 -0.9 -18.7 -1.2 -69.3 -1.1 -59.1 0 -68 0.2 -69.3 1.6 -1.3 1.3 -1.5 19.6 -1.5 156.7 0 85.4 0.3 156 0.7 156.9 0.5 0.9 1.8 1.9 3 2.2 1.3 0.2 39 0.2 83.8 0 69.6 -0.5 81.8 -0.8 83.8 -2z"/>
  <path d="M1141 1881.5 l0 -49.5 -10 0 -10 0 0 -10 0 -10 30 0 30 0 0 10 0 10 -10 0 -10 0 0 49.5 0 49.5 -10 0 -10 0 0 -49.5z"/>
  <path d="M1190 1871.5 l0 -59.5 30 0 30 0 0 10 0 10 -20 0 -20 0 0 16.5 c0 9.1 0.2 16.5 0.4 16.5 0.3 0 6.8 -3.6 14.5 -8 7.8 -4.4 14.3 -8 14.6 -8 0.3 0 0.4 5.1 0.3 11.3 l-0.3 11.2 -14.7 8.5 -14.8 8.4 0 11.3 0 11.3 20 0 20 0 0 10 0 10 -30 0 -30 0 0 -59.5z"/>
  <path d="M1258 1871.5 l0 -59.5 20.3 0 20.2 0 9.8 9.8 9.7 9.7 0 49.8 0 49.7 -10 0 -10 0 0 -26.6 c0 -14.6 -0.3 -26.4 -0.8 -26.2 -0.4 0.2 -4.7 2.6 -9.5 5.3 l-8.7 5 0 21.3 0 21.2 -10.5 0 -10.5 0 0 -59.5z m38.3 -15.9 c1.4 -0.9 1.7 -2.7 1.7 -12.3 l0 -11.3 -9.5 0 -9.5 0 0 16.6 0 16.6 7.8 -4.3 c4.2 -2.3 8.5 -4.7 9.5 -5.3z"/>
  <path d="M1330 1871.5 l0 -59.5 10 0 10.1 0 14.8 8.6 14.9 8.5 14.8 -8.5 14.9 -8.6 10.2 0 10.3 0 0 59.5 0 59.5 -10.5 0 -10.5 0 0 -46.7 c0 -25.8 0 -47.3 0 -48 0 -0.7 -4.3 1.3 -9.5 4.5 l-9.5 5.7 0 42.2 0 42.3 -10 0 -10 0 -0.2 -42.2 -0.3 -42.2 -9.5 -5.7 -9.5 -5.8 -0.3 48 -0.2 47.9 -10 0 -10 0 0 -59.5z"/>
  <path d="M1248 1456.6 c0 -79.3 0.3 -111.7 1.1 -112.2 1.4 -0.8 3.6 0.9 35 27.1 14.5 12.1 31.4 26.1 37.6 31 6.2 4.9 11.7 10 12.3 11.4 0.7 1.8 0.9 27 0.8 78.1 l-0.3 75.5 -43.2 0.3 -43.3 0.2 0 -111.4z"/>
  <path d="M1248.7 1183.3 c-0.4 -0.3 -0.7 -103.6 -0.7 -229.4 l0 -228.7 2.5 -3.1 c4 -4.7 23.6 -20.1 25.6 -20.1 1 0 7.8 5.1 15.1 11.3 16.4 13.8 28.9 24.2 34.6 28.6 7.9 6.1 7.2 -11.8 7.2 191.6 0 167 -0.1 182.9 -1.6 185.3 -0.9 1.5 -5.1 5.4 -9.3 8.7 -4.1 3.3 -13.2 10.6 -20.1 16.2 -27.3 22.3 -50.4 40.3 -51.5 40.3 -0.6 0 -1.5 -0.3 -1.8 -0.7z"/>
 </g>
</svg>