<?xml version="1.0" encoding="utf-8"?>
<!DOCTYPE svg PUBLIC "-//W3C//DTD SVG 1.0//EN" "http://www.w3.org/TR/2001/REC-SVG-20010904/DTD/svg10.dtd">
<svg version="1.0" xmlns="http://www.w3.org/2000/svg" width="500px" height="500px" viewBox="0 0 500 500" preserveAspectRatio="xMidYMid meet">
 <g fill="#0000f6">
  <path d="M0 250 l0 -250 250 0 250 0 0 250 0 250 -250 0 -250 0 0 -250z m222.75 197.50 c1.15 -0.30 0.65 -0.40 -2 -0.45 -2.45 0 -3.25 0.10 -2.75 0.45 0.85 0.55 2.55 0.55 4.75 0z m32.50 0 c0.70 -0.30 -0.05 -0.45 -2.35 -0.45 -1.95 -0.05 -3.40 0.15 -3.40 0.45 0 0.60 4.35 0.60 5.75 0z m115.25 -4.25 c0 -2.85 0.15 -3.70 0.80 -3.95 1.25 -0.45 4.15 -0.35 5.25 0.20 0.85 0.45 0.95 0.35 0.95 -0.85 l0 -1.40 -3.50 0.15 -3.50 0.20 0 -2.55 c0 -2.85 -0.75 -5.25 -1.50 -4.80 -0.55 0.35 -0.70 16.85 -0.15 17.40 0.15 0.20 0.60 0.10 1 -0.20 0.45 -0.40 0.65 -1.80 0.65 -4.20z m33.90 -4.40 c-0.20 -11.05 -1.10 -11.20 -1.30 -0.25 -0.15 8.30 0.05 9.95 0.95 9.05 0.30 -0.30 0.40 -3.75 0.35 -8.80z m-255.40 4.90 c0 -4.40 0.10 -4.50 4.65 -4.50 2.25 0 2.85 -0.15 2.85 -0.80 0 -0.65 -0.50 -0.75 -2.70 -0.55 -4.10 0.35 -4.80 -0.25 -4.80 -4.15 0 -1.85 -0.20 -3.25 -0.50 -3.25 -0.30 0 -0.50 3.15 -0.50 8.50 0 5.35 0.20 8.50 0.50 8.50 0.30 0 0.50 -1.60 0.50 -3.75z m153.60 0.35 c-0.15 -2.55 -0.05 -3.15 0.90 -4.10 0.95 -0.95 1.50 -1.10 3.80 -0.90 2.45 0.20 2.70 0.15 2.70 -0.80 0 -1 -0.25 -1.05 -3.50 -0.90 l-3.45 0.20 -0.15 -3.40 c-0.20 -4.55 -1.30 -4.95 -1.50 -0.60 -0.30 6.25 0.15 13.95 0.75 13.75 0.40 -0.15 0.55 -1.20 0.45 -3.25z m-109.85 -1.40 c-1.30 -6.55 -1.45 -6.80 -1.75 -3.45 l-0.25 3 -3.15 0.15 c-3.55 0.15 -4.60 -0.35 -4.65 -2.35 l-0.05 -1.30 -0.60 1.50 c-0.35 0.85 -0.80 2.35 -0.95 3.40 -0.25 1.65 -0.20 1.80 0.45 1.10 1.10 -1.05 2.50 -1.35 6.20 -1.15 3 0.15 3.30 0.25 4.25 1.70 0.55 0.90 1.05 1.55 1.15 1.45 0.05 -0.05 -0.20 -1.90 -0.65 -4.05z m23.85 3.70 c-0.40 -0.40 -0.60 -2.80 -0.60 -7.45 0 -5.60 0.15 -6.95 0.80 -7.50 1.05 -0.85 5.60 -1.15 7.35 -0.50 l1.40 0.55 -0.15 7.50 -0.15 7.50 1 -1.05 c0.85 -0.80 1.05 -1.80 1.15 -6.20 0.15 -4.65 0.05 -5.45 -0.90 -7 -1.25 -2 -3.10 -2.55 -7.15 -2.10 -1.95 0.25 -2.90 0.65 -3.75 1.65 -1.10 1.30 -1.15 1.65 -1 7.20 0.10 4.95 0.30 6.05 1.10 6.95 0.55 0.60 1.10 1.05 1.25 1.05 0.15 0 0 -0.25 -0.35 -0.60z m118.40 -0.90 c0 -1.40 1.55 -2 5.10 -1.95 4.10 0.05 5.60 0.50 5.80 1.70 0.10 0.55 0.45 1.25 0.70 1.50 0.35 0.35 0.45 0.10 0.20 -0.75 -0.20 -0.70 -0.55 -2.60 -0.80 -4.25 -0.45 -3 -2.35 -10.60 -2.80 -11.35 -0.35 -0.55 -2.80 -0.50 -3.70 0.10 -0.60 0.40 -0.45 0.50 0.65 0.50 2.60 0 3.15 0.70 3.80 4.60 0.35 2 0.55 4.35 0.45 5.15 l-0.15 1.50 -3.75 0 -3.75 0 -0.30 -2.25 c-0.30 -2.10 -0.30 -2.10 -0.35 -0.45 -0.05 0.95 -0.30 1.95 -0.50 2.25 -0.40 0.40 -1.60 4.15 -1.60 4.90 0 0.20 0.25 0.20 0.50 0.05 0.30 -0.15 0.50 -0.75 0.50 -1.25z m-76 -2.25 c0 -0.85 -0.30 -2 -0.70 -2.50 -0.65 -0.90 -0.70 -0.65 -0.90 2.35 -0.15 3.15 -0.10 3.30 0.75 2.55 0.45 -0.45 0.85 -1.50 0.85 -2.40z m120.30 0.40 c-0.40 -0.75 -0.75 -1.25 -0.80 -1.05 0 0.60 1.15 2.90 1.35 2.70 0.15 -0.10 -0.10 -0.85 -0.55 -1.65z m-123.40 -5.15 c-0.45 -0.30 -2 -0.65 -3.50 -0.90 l-2.65 -0.35 -0.15 -2.55 c-0.20 -3.25 0.35 -3.70 4.65 -3.95 4.25 -0.25 4.90 -0.75 0.95 -0.75 -3.30 0 -4.90 0.65 -6.30 2.55 -0.80 1.05 -0.85 1.50 -0.40 2.75 1.10 2.80 2.40 3.70 5.45 3.70 2.05 -0.05 2.60 -0.15 1.95 -0.50z m123.80 -6.35 c0.45 -0.90 0.70 -1.65 0.60 -1.65 -0.30 0 -1.80 2.75 -1.80 3.30 0 0.55 0.25 0.15 1.20 -1.65z m-189.70 -1.40 c-0.80 -0.95 -2.55 -0.95 -3.80 0 -0.90 0.65 -0.80 0.70 1.20 0.75 1.55 0 2.20 0.25 2.50 0.90 0.30 0.80 0.35 0.80 0.50 -0.05 0.10 -0.50 -0.10 -1.20 -0.40 -1.60z m127.45 -22.90 c2.10 -0.85 3.10 -1.65 4.40 -3.55 l1.65 -2.40 0 -13.70 c0 -12.50 -0.10 -13.90 -0.95 -15.60 -2.20 -4.25 -5.25 -5.30 -15.15 -5 -7.35 0.20 -8.50 0.45 -10.80 2.60 -2.55 2.30 -2.80 3.65 -3 16.85 -0.20 13.80 0.05 15.55 2.60 18.35 2.50 2.70 5.40 3.50 12.55 3.55 5.10 0 6.40 -0.15 8.70 -1.10z m-220.65 -8.55 c1.95 -4.40 4 -8.25 4.50 -8.65 0.50 -0.35 2.10 -0.65 3.55 -0.65 3.20 0 3.10 -0.10 7.70 10 l3.30 7.25 2.80 0.15 2.80 0.15 -3.55 -7.15 c-1.95 -3.95 -4.10 -8 -4.75 -9 -1.25 -2.05 -1.65 -6.55 -0.60 -7.20 0.35 -0.20 2.35 -3.95 4.45 -8.40 l3.85 -8.05 -2 -0.15 c-1.20 -0.10 -2.25 0.10 -2.65 0.50 -0.35 0.35 -2 3.80 -3.70 7.65 -4.25 9.65 -3.90 9.25 -7.45 9.25 -3.60 0 -3.55 0.05 -7.05 -9.05 -1.45 -3.70 -2.95 -7.10 -3.35 -7.55 -0.55 -0.65 -1.55 -0.90 -3.25 -0.90 l-2.40 0 0.75 1.90 c0.45 1 1.15 2.75 1.65 3.85 0.45 1.10 2 4.35 3.45 7.25 1.65 3.30 2.65 5.90 2.65 6.95 0 1.20 -1.40 4.55 -4.50 10.60 -2.45 4.85 -4.50 9 -4.50 9.20 0 0.15 1.05 0.25 2.35 0.15 l2.35 -0.15 3.60 -7.95z m114 7.25 c3.85 -1.75 6.55 -7 5.95 -11.55 -1 -7.45 -5 -10.65 -13.25 -10.60 -6.20 0.05 -6.50 -0.25 -6.50 -6.05 0 -2.95 0.20 -4.85 0.60 -5.25 0.40 -0.40 3.15 -0.60 9 -0.60 l8.35 0 0.35 -1.75 c0.55 -3.05 0.05 -3.25 -8.50 -3.25 -8.55 0 -10.60 0.40 -13.10 2.60 -3.10 2.75 -4.20 6.95 -2.95 11.55 1.60 6.10 4.25 7.80 13.10 8.30 3.05 0.15 5.75 0.50 6 0.70 0.20 0.25 0.35 2.70 0.30 5.50 -0.10 4.10 -0.30 5.20 -1 5.70 -0.60 0.45 -2.80 0.55 -8.45 0.30 -8.85 -0.35 -9.20 -0.25 -9.20 3.15 l0 2.20 8.65 0 c7.30 0 8.90 -0.15 10.65 -0.95z m46.20 -15.75 c0 -9.20 0.15 -17.05 0.30 -17.50 0.25 -0.65 1.15 -0.80 4.40 -0.80 4.60 0 5.30 -0.40 5.30 -2.85 0 -2.55 -1.15 -2.75 -13.50 -2.60 -11.65 0.15 -13 0.40 -13 2.70 0 2.05 1.20 2.75 5 2.75 5.50 0 5 -1.75 5 17.45 0 9.30 0.15 17.05 0.35 17.20 0.15 0.20 1.65 0.35 3.25 0.35 l2.90 0 0 -16.70z m105.40 9 c0.05 -4.50 0.35 -7.75 0.70 -8.15 0.75 -0.90 9.55 -0.90 10.30 0 0.45 0.50 5.60 15 5.60 15.70 0 0.10 1.15 0.15 2.50 0.15 1.40 0 2.50 -0.15 2.50 -0.40 0 -1.35 -4.25 -11.90 -5 -12.35 -0.25 -0.15 -0.50 -1.30 -0.50 -2.50 0 -1.80 0.30 -2.55 1.90 -4.40 2.40 -2.75 3.30 -5.85 3 -10.05 -0.45 -5.50 -2.75 -8.50 -7.35 -9.80 -1.95 -0.55 -17.95 -0.70 -19.25 -0.20 -0.70 0.25 -0.80 2.50 -0.80 20.05 l0 19.70 3.15 -0.15 3.10 -0.15 0.15 -7.45z m75.50 5.55 c0.15 -1.60 0 -1.90 -1.15 -2.35 -0.70 -0.30 -4.45 -0.50 -8.25 -0.50 -5.80 0 -6.95 -0.10 -7.20 -0.80 -0.55 -1.50 -0.35 -10.45 0.30 -11.10 0.40 -0.40 2.60 -0.60 6.55 -0.60 6.60 0 7.85 -0.40 7.85 -2.40 0 -2.35 -0.70 -2.60 -7.60 -2.60 -5.80 0 -6.40 -0.10 -6.90 -0.95 -0.55 -1.05 -0.70 -9.45 -0.20 -10.75 0.25 -0.70 1.45 -0.80 7.75 -0.80 7.40 0 7.50 0 8 -1.20 0.35 -0.70 0.45 -1.80 0.25 -2.50 l-0.30 -1.30 -10.65 0 c-7.60 0 -10.80 0.15 -11.25 0.60 -0.45 0.45 -0.60 5.50 -0.60 19.65 0 10.50 0.15 19.25 0.35 19.45 0.20 0.15 5.40 0.25 11.60 0.20 l11.30 -0.15 0.15 -1.90z m-274.65 -15.70 c0.55 -2.35 -0.60 -2.70 -8.25 -2.55 -6.65 0.15 -6.75 0.15 -6.90 1.30 -0.35 2.50 -0.15 2.60 7.60 2.60 l7.20 0 0.35 -1.35z m42.55 -45.85 c1.10 -0.40 8.40 -9 20.65 -24.30 11.90 -14.80 15.95 -19.75 16.85 -20.55 1.10 -1 5.25 -2.45 6.85 -2.45 2.05 0 4.80 1.05 6.40 2.35 1.25 1.05 13.40 15.80 21.20 25.70 0.85 1.05 3.40 4.20 5.75 7.05 2.35 2.85 5.40 6.60 6.75 8.25 1.40 1.70 3.20 3.35 4 3.75 1.15 0.50 5.15 0.65 16.80 0.65 14.30 -0.05 15.35 -0.10 16.95 -1.05 2.30 -1.35 3.65 -3.70 3.05 -5.25 -0.25 -0.65 -3.90 -5.45 -8.10 -10.70 -10.90 -13.60 -13.95 -17.35 -14.90 -18.50 -2.70 -3.25 -14.50 -17.90 -17.45 -21.70 -0.75 -0.90 -1.60 -1.95 -1.85 -2.25 -0.30 -0.30 -2.85 -3.45 -5.75 -7.05 -2.85 -3.55 -5.35 -6.60 -5.50 -6.75 -0.15 -0.15 -0.65 -0.70 -1.05 -1.30 -0.40 -0.60 -1.55 -2.05 -2.55 -3.25 -1.05 -1.20 -3.50 -4.25 -5.50 -6.70 -2 -2.50 -4.85 -6 -6.25 -7.75 -1.45 -1.80 -5.60 -6.95 -9.25 -11.50 -15 -18.70 -25.10 -31.25 -25.40 -31.50 -0.20 -0.15 -5.05 -6.10 -10.75 -13.25 -5.70 -7.15 -11 -13.70 -11.70 -14.55 -0.70 -0.85 -1.95 -2.40 -2.80 -3.45 -0.80 -1.05 -3.75 -4.65 -6.50 -8 -2.75 -3.35 -5.55 -6.85 -6.25 -7.75 -1.50 -2.05 -8.30 -10.40 -10.95 -13.50 -1.05 -1.25 -2.80 -3.40 -3.85 -4.75 -4.15 -5.45 -11.30 -13.75 -12.35 -14.35 -0.80 -0.50 -4.95 -0.65 -16.35 -0.65 -16.65 0 -18.20 0.20 -20 2.75 -1.15 1.65 -1.25 2.60 -0.35 4.10 0.50 0.85 23.75 30.15 33.30 41.95 1.25 1.55 3.45 4.25 4.80 6 1.40 1.70 5.30 6.55 8.75 10.70 3.45 4.20 7.95 9.70 10 12.25 4.20 5.15 29.65 35.90 36.40 43.90 6.25 7.40 6.60 8.10 6.60 12.60 0 4.45 -0.25 4.80 -7.60 13.85 -2.65 3.25 -8.90 10.95 -13.90 17.15 -5 6.20 -9.85 12.05 -10.80 13.05 -2.65 2.75 -4.30 3.10 -14 2.90 -9.75 -0.25 -11.60 -0.80 -13.55 -4.25 -1.35 -2.30 -1.55 -7.10 -0.45 -9.75 0.40 -0.95 3.05 -4.50 5.85 -7.95 7.60 -9.25 17.05 -21 18.35 -22.85 1.75 -2.45 1.45 -3.55 -2.25 -8 -0.90 -1.05 -3.85 -4.70 -6.65 -8.15 -6.30 -7.75 -7.40 -8.90 -9.15 -9.80 -1.25 -0.65 -1.55 -0.65 -2.90 0.15 -1.45 0.85 -8.45 9.15 -21.90 25.80 -3.15 3.90 -7.55 9.35 -9.80 12.10 -9 11.05 -11.25 15.50 -12.80 24.95 -1.75 10.90 4.20 24.60 14.40 33.20 3.15 2.65 10.15 6.60 11.75 6.60 0.45 0 0.95 0.20 1.10 0.45 0.30 0.50 6.40 1.50 10.55 1.75 5.55 0.30 43 -0.05 44.05 -0.40z m165.85 -45.50 c1.85 -0.80 3.10 -2 3.80 -3.90 0.45 -1.20 0.25 -1.70 -1.60 -4.35 -1.15 -1.60 -7.80 -9.90 -14.75 -18.40 -6.95 -8.45 -14.75 -18 -17.35 -21.15 -12.75 -15.75 -32.45 -39.85 -36.50 -44.75 -2.50 -3 -8.15 -9.85 -12.55 -15.20 -4.35 -5.35 -9.75 -11.85 -11.90 -14.50 -5.40 -6.60 -5.80 -7.30 -5.80 -10.60 0 -5.15 0.70 -6.55 6.85 -13.75 1.10 -1.35 3.20 -3.90 4.65 -5.70 3.10 -3.95 2.85 -3.65 7.55 -9.50 9.95 -12.30 13.85 -16.80 15.20 -17.50 1.20 -0.60 3.60 -0.75 11.50 -0.75 9.10 0 10.15 0.10 11.70 1 3.05 1.80 3.80 3.35 3.80 7.70 -0.05 4.80 -0.40 5.45 -8.75 15.55 -3.45 4.20 -8.20 9.95 -10.60 12.85 -2.35 2.90 -4.85 6.25 -5.45 7.40 -1.05 2 -1.10 2.30 -0.45 3.60 0.60 1.15 4.95 7 8.15 10.95 0.45 0.50 2.50 3.15 4.60 5.80 2.20 2.75 4.50 5.10 5.30 5.40 3.10 1.30 3.35 1.05 18.40 -17.75 9.40 -11.80 11.40 -14.30 15.85 -19.70 11.60 -14.15 15.10 -23.95 12.80 -36.20 -1.05 -5.75 -5.70 -14.45 -10.60 -20.05 -3.20 -3.65 -10.80 -7.85 -18.25 -10.10 l-4.50 -1.40 -22.60 -0.20 c-26.70 -0.20 -25.15 -0.50 -29.95 5.45 -6.25 7.70 -11.50 14.25 -12.45 15.50 -2.05 2.65 -9.10 11.40 -14.65 18.10 -6.50 7.85 -7.95 8.85 -12.60 8.85 -3.55 0 -5.05 -0.70 -7.55 -3.35 -2 -2.15 -13.20 -15.80 -25.35 -30.95 -8.90 -11.10 -10.25 -12.45 -13 -13.05 -1 -0.20 -8.15 -0.40 -15.85 -0.40 -15.30 0 -15.90 0.10 -18.20 3.05 -2.10 2.70 -2.35 2.30 13.20 21.20 2.75 3.30 13.75 17 16.50 20.45 0.85 1.05 8.25 10.30 16.50 20.55 8.25 10.25 15.55 19.35 16.25 20.20 1.40 1.80 3.90 4.90 7.80 9.50 1.35 1.70 7.10 8.80 12.70 15.80 9.45 11.85 13.15 16.40 19 23.50 1.25 1.55 2.95 3.65 3.75 4.70 0.85 1.05 3.35 4.20 5.65 7 2.25 2.75 9.90 12.25 17 21 7.05 8.75 13.65 16.90 14.60 18.05 1.90 2.30 6.75 8.35 10.20 12.75 1.20 1.50 2.65 3.25 3.15 3.85 0.55 0.60 2.30 2.85 3.95 4.95 4.45 5.85 6.30 7.80 7.95 8.50 2.20 0.95 30.60 1 32.90 0z"/>
  <path d="M300.70 402.30 c-0.65 -1.05 -0.75 -3.05 -0.60 -14.80 0.15 -12.75 0.20 -13.60 1.10 -14.30 1.20 -0.85 13.30 -1 14.85 -0.20 0.90 0.50 0.95 1.20 0.95 14.90 0 10.55 -0.15 14.55 -0.60 15 -0.40 0.40 -2.85 0.60 -7.75 0.60 -7 0 -7.15 0 -7.95 -1.20z"/>
  <path d="M363.10 385.60 c-0.45 -0.35 -0.60 -2 -0.50 -6.65 l0.15 -6.20 6.45 -0.15 c4.55 -0.10 6.65 0.05 7.15 0.50 0.65 0.50 0.75 1.65 0.55 6.15 -0.10 3.05 -0.40 5.80 -0.60 6.15 -0.40 0.70 -12.10 0.85 -13.20 0.20z"/>
 </g>
 <g fill="#3ac8ec">
  <path d="M178.85 449.15 c-0.60 -0.55 -0.35 -2.85 0.40 -3.85 0.80 -1.05 1.75 -0.65 1.75 0.75 0 0.50 0.35 0.95 0.75 0.95 0.90 0 1 1.05 0.15 1.90 -0.65 0.65 -2.50 0.80 -3.05 0.25z"/>
  <path d="M298.80 409.55 c-2.95 -1.05 -5.55 -3.70 -6.30 -6.55 -0.40 -1.40 -0.50 -6.70 -0.40 -15.95 0.20 -14.85 0.40 -16 3 -18.35 2.60 -2.40 5.05 -2.85 14.45 -2.80 9.55 0.10 12.40 1.10 14.50 5.25 0.90 1.75 1 3.10 1.05 16.80 0 11.25 -0.10 15.15 -0.60 16.10 -2.85 5.35 -5.60 6.45 -15.90 6.40 -5.60 0 -7.95 -0.25 -9.80 -0.90z m16.10 -8.15 c0.45 -0.45 0.60 -4.15 0.60 -13.50 0 -12.20 -0.05 -12.90 -0.95 -13.40 -1.50 -0.75 -10.65 -0.65 -11.80 0.20 -0.85 0.60 -0.95 1.65 -1.15 12.75 -0.30 15.45 -0.70 14.55 7.05 14.55 3.75 0 5.85 -0.20 6.25 -0.60z"/>
  <path d="M86 408.30 c0 -0.40 2.25 -5.25 5.05 -10.75 l5 -10.05 -2.95 -6.15 c-4.85 -9.95 -6.30 -13.55 -5.90 -14.60 0.45 -1.15 7.85 -1.05 8.95 0.15 0.40 0.45 1.90 3.85 3.35 7.55 3.15 8.20 3.65 9.05 5.55 9.05 1.80 0 2.10 -0.45 5.95 -9.25 1.70 -3.85 3.40 -7.30 3.75 -7.70 0.85 -0.85 7 -1.10 8.10 -0.30 0.60 0.45 0 2 -3.75 9.80 -2.45 5.15 -4.70 9.45 -5.05 9.65 -0.90 0.55 -0.65 2.15 0.65 4.25 1.35 2.15 9.30 18.15 9.30 18.70 0 0.20 -2.15 0.30 -4.80 0.25 l-4.85 -0.15 -3.30 -7.25 c-4 -8.85 -4.70 -10 -6.20 -10 -2.05 0 -2.95 1.20 -6.55 9.30 l-3.60 7.95 -4.35 0.15 c-3.50 0.10 -4.35 0 -4.35 -0.60z"/>
  <path d="M190 405.30 c0 -2.60 0.20 -3.85 0.75 -4.30 0.50 -0.40 3 -0.55 8.70 -0.45 4.85 0.10 8.25 -0.05 8.55 -0.35 0.55 -0.55 0.80 -7.55 0.25 -8.10 -0.15 -0.20 -2.85 -0.50 -5.90 -0.65 -8.95 -0.50 -11.55 -2.20 -13.15 -8.55 -1.50 -5.75 -0.30 -11.40 3 -14.30 2.60 -2.25 5 -2.70 14.65 -2.75 10.35 -0.05 10.35 -0.05 10.05 4.50 -0.10 1.70 -0.35 3.25 -0.55 3.45 -0.15 0.20 -4 0.35 -8.45 0.30 -4.90 0 -8.40 0.20 -8.75 0.50 -0.90 0.75 -0.85 6.60 0.05 7.35 0.40 0.35 2.80 0.70 5.40 0.75 4.95 0.20 7.25 0.90 10.10 3.05 2.10 1.60 3.10 4.05 3.55 8.60 0.65 6.50 -1.60 11.75 -5.90 13.70 -1.85 0.80 -3.35 0.95 -12.20 0.95 l-10.15 0 0 -3.70z"/>
  <path d="M249.35 408.65 c-0.20 -0.15 -0.35 -7.90 -0.35 -17.20 0 -19.20 0.50 -17.45 -5 -17.45 -4.30 0 -5 -0.60 -5 -4.25 0 -4.20 -0.10 -4.20 14.50 -4.25 7.05 0 12.95 0.20 13.70 0.50 1.20 0.45 1.30 0.70 1.30 3.65 0 1.80 -0.25 3.40 -0.60 3.75 -0.35 0.35 -2.20 0.60 -4.70 0.60 -3.25 0 -4.15 0.15 -4.40 0.80 -0.15 0.45 -0.30 8.30 -0.30 17.50 l0 16.70 -4.40 0 c-2.45 0 -4.60 -0.15 -4.75 -0.35z"/>
  <path d="M354.50 387.80 l0 -21.30 1.20 -0.30 c0.65 -0.15 5.85 -0.20 11.60 -0.10 10.10 0.15 10.55 0.20 12.65 1.40 3 1.70 3.90 3.10 4.80 7.40 1.25 5.90 0.15 11.15 -3 14.65 -1.75 2 -2.15 3.15 -1.25 3.70 1 0.65 6.20 14.50 5.70 15.30 -0.25 0.40 -8.70 0.70 -8.70 0.30 0 -0.60 -5.15 -15.15 -5.50 -15.60 -0.65 -0.80 -6.85 -0.80 -7.50 0 -0.25 0.30 -0.55 3.95 -0.60 8.05 l-0.15 7.45 -4.60 0.15 -4.65 0.15 0 -21.25z m20.30 -3.85 c0.15 -0.30 0.45 -2.40 0.55 -4.65 0.35 -5.30 0.25 -5.40 -6.15 -5.20 l-4.95 0.15 -0.15 4.70 c-0.10 3.45 0.05 4.85 0.50 5.15 1 0.60 9.80 0.50 10.20 -0.15z"/>
  <path d="M413.35 408.65 c-0.20 -0.15 -0.35 -9.55 -0.35 -20.90 0 -15.30 0.15 -20.70 0.60 -21.15 0.45 -0.45 3.95 -0.60 12.70 -0.60 13.55 0 12.70 -0.25 12.70 3.80 0 4.20 0 4.20 -8.45 4.20 -8.50 0 -8.05 -0.25 -8.05 4.55 0 4.90 -0.05 4.85 7.35 4.90 3.80 0.05 6.60 0.30 7 0.60 0.40 0.35 0.65 1.65 0.65 3.50 0 2.35 -0.20 3 -0.95 3.45 -0.55 0.25 -3.65 0.50 -6.90 0.50 -3.95 0 -6.15 0.20 -6.55 0.60 -0.60 0.60 -0.85 6.70 -0.30 8.10 0.25 0.70 1.40 0.80 7.20 0.80 3.80 0 7.50 0.20 8.25 0.50 1.25 0.45 1.30 0.65 1.15 3.85 l-0.15 3.40 -12.80 0.15 c-7 0.05 -12.90 -0.05 -13.10 -0.25z"/>
  <path d="M146.80 391.90 c-0.60 -1.85 -0.70 -4.65 -0.25 -5.45 0.45 -0.85 1.20 -0.95 8.50 -0.95 4.55 0 8.45 0.20 9 0.50 1 0.55 1.30 3 0.65 5.40 -0.30 1.10 -0.40 1.10 -9 1.10 -6.55 0 -8.80 -0.15 -8.90 -0.60z"/>
  <path d="M337.25 299.80 c-1.65 -0.70 -3.50 -2.65 -7.95 -8.50 -1.65 -2.10 -3.40 -4.35 -3.95 -4.95 -0.50 -0.60 -1.95 -2.35 -3.15 -3.85 -3.45 -4.40 -8.30 -10.45 -10.20 -12.75 -0.95 -1.15 -7.55 -9.30 -14.60 -18.05 -7.10 -8.75 -14.75 -18.25 -17 -21 -2.30 -2.80 -4.80 -5.95 -5.65 -7 -0.80 -1.05 -2.50 -3.15 -3.75 -4.70 -5.85 -7.10 -9.55 -11.65 -19 -23.50 -5.60 -7 -11.35 -14.10 -12.70 -15.80 -3.90 -4.60 -6.40 -7.70 -7.80 -9.50 -0.70 -0.85 -8 -9.95 -16.25 -20.20 -8.25 -10.25 -15.65 -19.50 -16.50 -20.55 -2.75 -3.45 -13.75 -17.15 -16.50 -20.45 -13.35 -16.20 -14.10 -17.30 -14.50 -19.80 -0.40 -2.35 1.05 -4.85 3.75 -6.40 1.65 -1 2.50 -1.05 17.25 -1.05 8.55 0 16.35 0.20 17.35 0.40 2.75 0.60 4.10 1.95 13 13.05 12.15 15.15 23.35 28.80 25.35 30.95 2.20 2.35 4 3.35 6.05 3.35 3 0 5.20 -1.75 11.10 -8.85 5.55 -6.70 12.60 -15.45 14.65 -18.10 0.95 -1.25 6.20 -7.80 12.45 -15.50 4.85 -5.95 3 -5.65 31.45 -5.45 l24.10 0.20 4.50 1.40 c7.45 2.25 15.05 6.45 18.25 10.10 4.90 5.60 9.55 14.30 10.60 20.05 0.95 4.95 0.80 13.70 -0.25 17.65 -1.75 6.50 -5.65 13.15 -12.55 21.55 -4.45 5.40 -6.45 7.90 -15.85 19.70 -13 16.25 -14.25 17.65 -16.45 18.30 -1.65 0.50 -2.35 0.45 -4.15 -0.25 -1.75 -0.65 -2.95 -1.75 -6.05 -5.70 -2.15 -2.65 -4.20 -5.30 -4.65 -5.80 -4.05 -4.95 -7.65 -9.90 -8.35 -11.45 -1.80 -3.95 -1.45 -4.50 16.85 -26.50 7.35 -8.85 8.45 -10.60 8.50 -13.85 0.05 -2.90 -1 -4.65 -3.70 -6.25 -1.50 -0.90 -2.60 -1 -10.20 -1 -6.55 0 -8.85 0.15 -10 0.75 -1.35 0.70 -5.25 5.20 -15.20 17.50 -4.70 5.85 -4.45 5.55 -7.55 9.50 -1.45 1.80 -3.55 4.35 -4.65 5.70 -4.50 5.25 -6.30 8.05 -6.65 10.15 -0.60 3.95 -1.55 2.45 17.50 25.70 4.40 5.35 10.05 12.20 12.55 15.20 4.05 4.90 23.75 29 36.50 44.75 2.60 3.15 10.40 12.70 17.35 21.15 6.95 8.50 13.65 16.85 14.80 18.50 2 2.80 2.15 3.30 1.95 5.30 -0.30 2.60 -1.60 4.50 -3.90 5.65 -1.50 0.80 -3.45 0.90 -18.20 0.90 -12.45 -0.05 -16.85 -0.20 -18 -0.70z"/>
 </g>
 <g fill="#ffffff">
  <path d="M148.50 449.05 c0 -0.30 -0.45 -0.55 -1 -0.55 -1 0 -1 -0.25 -0.90 -9.85 l0.15 -9.90 1.75 0 1.75 0 0.15 3.25 c0.05 1.80 0.40 3.50 0.75 3.75 0.85 0.70 0.85 4.85 0.05 5.50 -0.45 0.30 -0.70 1.85 -0.80 4.25 -0.15 3.10 -0.30 3.75 -1 3.90 -0.50 0.10 -0.90 -0.05 -0.90 -0.35z"/>
  <path d="M180.50 448.75 c0 -0.40 -0.45 -0.75 -1 -0.75 -0.55 0 -1 -0.20 -1 -0.50 0 -0.25 0.25 -0.50 0.55 -0.50 0.25 0 0.40 -0.20 0.25 -0.40 -0.10 -0.20 0.15 -2.20 0.65 -4.35 0.80 -3.85 0.90 -4 2.35 -4.15 1.15 -0.10 1.55 0.15 2.10 1.25 1 2.25 0.50 5.20 -1.25 7.05 -0.35 0.35 -0.65 0.90 -0.65 1.15 0 0.55 -1.25 1.95 -1.70 1.95 -0.15 0 -0.30 -0.35 -0.30 -0.75z"/>
  <path d="M312.70 448.65 c-0.80 -0.15 -1.50 -1.20 -2.65 -3.80 -0.90 -2 -2.05 -3.90 -2.55 -4.25 -0.75 -0.45 -1 -1.15 -1 -2.60 0 -1.90 0.05 -2 1.65 -2 0.85 0 1.85 0.20 2.20 0.40 0.90 0.55 1.65 2.90 1.65 5.15 0 1.70 0.15 1.95 1.15 1.95 0.90 0 1.30 0.50 2 2.40 0.45 1.30 0.85 2.50 0.85 2.75 0 0.35 -1.45 0.35 -3.30 0z"/>
  <path d="M332 447.85 c0 -1.10 1.15 -5.60 1.85 -7.35 0.40 -0.90 0.50 -1.35 0.60 -2 0 -0.25 0.90 -0.50 2 -0.50 1.80 0 1.90 0.10 1.65 1.30 -0.15 1 0 1.30 0.85 1.55 1.05 0.25 1.50 1.65 0.55 1.65 -0.25 0 -0.50 0.30 -0.50 0.65 0 0.35 -0.65 1.15 -1.50 1.75 -0.80 0.65 -1.50 1.45 -1.50 1.85 0 1.05 -1.45 2.25 -2.80 2.25 -0.90 0 -1.20 -0.25 -1.20 -1.15z"/>
  <path d="M252 447 c0 -1.40 0.15 -1.50 1.70 -1.50 1.90 0 2.45 -0.85 2.30 -3.40 -0.20 -3 -0.05 -3.50 1.40 -3.75 1.70 -0.30 2.40 0.25 3.15 2.50 0.45 1.45 0.45 1.85 -0.10 2.25 -0.45 0.30 -0.50 0.55 -0.15 0.70 0.75 0.30 0.30 2.50 -0.65 3.30 -0.55 0.45 -0.80 0.45 -1.10 -0.05 -0.35 -0.50 -0.60 -0.50 -1.50 0 -0.55 0.40 -1.05 0.85 -1.05 1.05 0 0.25 -0.90 0.40 -2 0.40 -1.90 0 -2 -0.10 -2 -1.50z"/>
  <path d="M189.95 446.10 c-1 -1 -2.15 -2.15 -2.60 -2.50 -1.35 -1.05 -1.05 -2.50 0.55 -2.70 1.10 -0.10 1.40 -0.40 1.50 -1.75 0.10 -1.25 0.40 -1.65 1.15 -1.65 0.50 0 0.95 0.25 0.95 0.50 0 0.30 0.45 0.50 0.95 0.50 1.25 0 1.45 0.35 1.75 2.80 0.15 1.05 0.50 2.75 0.80 3.70 0.80 2.75 0.70 3 -1.35 2.95 -1.50 0 -2.30 -0.40 -3.70 -1.85z"/>
  <path d="M220.90 447.65 c-0.50 -0.10 -0.90 -0.65 -0.90 -1.20 0 -0.75 0.35 -0.95 1.70 -0.95 1.10 0 1.80 -0.30 2 -0.80 0.15 -0.45 0.30 -3.60 0.30 -7 l0 -6.20 1.70 0 c1.65 0 1.65 0 1.95 2.75 0.35 3.50 -0.15 11.75 -0.70 11.75 -0.25 0 -0.45 0.45 -0.45 1 0 0.85 -0.30 1 -2.35 0.95 -1.35 -0.05 -2.80 -0.15 -3.25 -0.30z"/>
  <path d="M367 441.80 c0 -3.40 0.15 -6.55 0.30 -7 0.20 -0.50 0.90 -0.80 1.90 -0.80 1.25 0 1.75 0.30 2.20 1.25 0.75 1.60 0.75 4.50 0.10 5.75 -0.30 0.55 -0.65 2.30 -0.85 4 l-0.30 3 -1.65 0 -1.70 0 0 -6.20z"/>
  <path d="M157.30 446.70 c-0.60 -1.60 -0.30 -2.70 0.70 -2.70 0.55 0 1 -0.35 1 -0.75 0 -1.25 0.95 -0.85 1.80 0.85 0.55 1.10 0.65 1.65 0.25 1.80 -0.30 0.10 -0.55 0.50 -0.55 0.90 0 1 -2.80 0.90 -3.20 -0.10z"/>
  <path d="M300 445.80 c0 -1.40 0.20 -1.75 1.15 -1.95 l1.10 -0.20 -1.10 -0.10 c-1.10 -0.05 -1.15 -0.25 -1.15 -4.55 l0 -4.50 1.95 0 c1.75 0 2 0.15 2.25 1.40 0.40 2.05 0.20 10.10 -0.30 10.10 -0.20 0 -0.40 0.35 -0.40 0.75 0 0.50 -0.55 0.75 -1.75 0.75 -1.65 0 -1.75 -0.10 -1.75 -1.70z"/>
  <path d="M213.35 445.65 c-0.20 -0.15 -0.35 -1.20 -0.35 -2.25 0 -1.85 0.05 -1.90 1.75 -1.90 1.75 0 1.75 0 1.75 2.25 0 2.15 -0.05 2.25 -1.40 2.25 -0.80 0 -1.60 -0.15 -1.75 -0.35z"/>
  <path d="M345.25 445.15 c-0.55 -0.10 -1.50 -0.30 -2.10 -0.45 -0.95 -0.15 -1.15 -0.55 -1.15 -1.95 0 -0.90 0.25 -1.85 0.50 -2 0.30 -0.15 0.50 -0.95 0.50 -1.80 0 -1.30 0.15 -1.45 1.65 -1.45 1.85 0 2.55 0.95 3.05 4 0.15 0.95 0.40 2.25 0.60 2.90 0.25 0.95 0.15 1.10 -0.85 1.05 -0.65 -0.05 -1.65 -0.15 -2.20 -0.30z"/>
  <path d="M341.50 432 c0 -1.15 -0.20 -1.50 -1 -1.50 -0.65 0 -1 -0.35 -1 -1 0 -0.80 0.35 -1 1.65 -1 2.70 0 3.75 0.50 4.10 1.90 0.15 0.75 0.40 1.75 0.55 2.25 0.25 0.70 -0.10 0.85 -2 0.85 -2.20 0 -2.30 -0.05 -2.30 -1.50z"/>
  <path d="M157.25 431.15 c0.50 -2.05 1.20 -2.65 3.05 -2.65 1.35 0 1.70 0.20 1.70 1 0 0.55 -0.35 1 -0.75 1 -0.40 0 -0.75 0.45 -0.75 1 0 0.80 -0.35 1 -1.80 1 -1.70 0 -1.80 -0.05 -1.45 -1.35z"/>
  <path d="M215 430.55 c0 -1.20 0.25 -1.45 1.55 -1.75 2.50 -0.50 2.95 -0.35 2.95 0.70 0 0.55 -0.20 1 -0.50 1 -0.25 0 -0.50 0.35 -0.50 0.75 0 0.50 -0.55 0.75 -1.75 0.75 -1.60 0 -1.75 -0.15 -1.75 -1.45z"/>
  <path d="M172.50 345.40 c-4 -0.15 -10.15 -0.35 -13.65 -0.45 -4.10 -0.05 -6.65 -0.30 -7.05 -0.70 -0.30 -0.30 -1.55 -0.75 -2.70 -0.95 -6.95 -1.10 -17.35 -9.50 -21.65 -17.45 -6.70 -12.45 -7.15 -25.35 -1.30 -37.10 1.80 -3.65 3.75 -6.40 9.30 -13.25 2.40 -2.90 6.95 -8.50 10.15 -12.50 13.30 -16.50 19.45 -23.80 21 -24.85 1.85 -1.30 4.35 -1.45 6.35 -0.45 1.50 0.80 5.05 4.50 5.05 5.30 0 0.25 0.80 1.20 1.75 2.10 0.95 0.90 3.95 4.45 6.75 7.90 l5 6.25 0 3.10 c0 2.95 -0.10 3.25 -2 5.25 -1.10 1.20 -2 2.40 -2 2.65 0 0.30 -1 1.65 -2.25 3 -1.20 1.40 -2.25 2.65 -2.25 2.80 0 0.20 -1.45 1.85 -3.25 3.70 -1.80 1.90 -3.25 3.70 -3.25 4.05 0 0.30 -0.35 0.70 -0.75 0.90 -0.40 0.15 -0.75 0.60 -0.75 1.05 0 0.40 -0.20 0.75 -0.40 0.75 -0.25 0 -0.90 0.85 -1.50 1.90 -0.55 1 -1.80 2.60 -2.75 3.45 -2.60 2.45 -4.85 6.10 -4.85 7.85 0.05 2.50 2.45 6.30 4.75 7.50 1.65 0.85 3.15 1.05 8.95 1.20 10.40 0.30 10.20 0.40 19.55 -11.25 2.50 -3.10 4.80 -5.65 5.15 -5.65 0.30 0 0.60 -0.35 0.60 -0.80 0 -0.40 1.85 -3.05 4.15 -5.80 2.25 -2.80 6 -7.45 8.35 -10.30 6.10 -7.45 7 -8.95 7 -11.65 0 -2.70 -1.25 -4.80 -6.55 -11 -6.90 -8.10 -11.95 -14.35 -11.95 -14.90 0 -0.30 -0.20 -0.55 -0.45 -0.55 -0.40 0 -14.25 -16.40 -24.05 -28.50 -2.05 -2.55 -6.55 -8.05 -10 -12.25 -3.45 -4.15 -7.35 -9 -8.75 -10.70 -1.35 -1.75 -3.55 -4.45 -4.80 -6 -16.90 -20.85 -32.90 -41.20 -33.65 -42.75 -1.55 -3.30 0.05 -7.15 3.60 -8.40 2.60 -0.90 34.85 -0.95 36.45 0 1.05 0.60 8.20 8.90 12.35 14.35 1.05 1.35 2.80 3.50 3.85 4.75 2.65 3.10 9.45 11.45 10.95 13.50 0.70 0.90 3.50 4.40 6.25 7.75 2.75 3.35 5.70 6.95 6.50 8 0.85 1.05 2.10 2.60 2.80 3.45 0.70 0.85 6 7.40 11.70 14.55 5.70 7.15 10.55 13.10 10.75 13.25 0.30 0.25 10.40 12.80 25.40 31.50 3.65 4.55 7.80 9.70 9.25 11.50 1.40 1.75 4.25 5.25 6.25 7.75 2 2.45 4.45 5.50 5.50 6.70 1 1.20 2.15 2.65 2.55 3.25 0.40 0.60 0.90 1.15 1.05 1.30 0.15 0.15 2.65 3.20 5.50 6.75 2.90 3.60 5.45 6.75 5.75 7.05 0.25 0.30 1.10 1.35 1.85 2.25 3.10 3.95 15.20 18.95 17.45 21.70 0.50 0.55 2.30 2.80 4.05 4.95 1.70 2.20 6.70 8.40 11 13.75 7.70 9.55 7.90 9.85 7.90 12.20 0 2.80 -1.05 5.55 -2.35 6.30 -0.55 0.25 -5.80 0.60 -11.70 0.75 -21.25 0.55 -24.15 0.55 -25.70 -0.15 -0.85 -0.35 -2.60 -2 -4 -3.70 -1.35 -1.65 -4.40 -5.40 -6.75 -8.25 -2.35 -2.85 -4.90 -6 -5.75 -7.05 -7.75 -9.85 -19.95 -24.65 -21.20 -25.65 -2.55 -2.20 -4.60 -2.60 -7.90 -1.65 -2.95 0.85 -3.60 1.40 -4.95 4.10 -0.45 0.90 -1.50 2.05 -2.35 2.55 -0.90 0.50 -1.95 1.55 -2.35 2.35 -0.40 0.80 -1.25 2 -1.85 2.65 -0.65 0.70 -1.15 1.45 -1.15 1.65 0 0.25 -0.85 1.25 -1.85 2.30 -1.05 1.05 -2.45 2.65 -3.15 3.60 -0.70 0.95 -2.10 2.50 -3.10 3.45 -1.05 0.95 -1.90 1.95 -1.90 2.15 0 0.55 -1.20 2.05 -4.15 5.15 -1.35 1.40 -2.85 3.35 -3.35 4.30 -0.50 0.95 -1.35 2.20 -1.95 2.70 -0.60 0.55 -1.05 1.20 -1.05 1.50 0 0.30 -1.40 2.05 -3.15 3.90 -2.35 2.50 -3.65 3.45 -5.35 3.95 -2.50 0.75 -20.35 0.95 -33 0.35z"/>
 </g>
 <g fill="#f9f6fa">
  <path d="M146.75 449 c-0.15 -0.30 -0.25 -4.90 -0.20 -10.25 0.15 -10.45 0.15 -10.55 2.80 -9.75 l1.40 0.40 -1.30 0.05 c-1.30 0.05 -2.25 1.20 -1.70 2.05 0.15 0.25 0.30 1.20 0.35 2.15 0.05 1.35 0.25 1.65 0.95 1.50 0.45 -0.15 1.45 0.15 2.15 0.60 2.15 1.45 3.35 0.70 5.30 -3.30 1.70 -3.45 1.80 -3.60 3.65 -3.70 1.20 -0.05 1.85 0.10 1.85 0.55 0 0.35 -0.95 2.60 -2.05 5 -1.80 3.80 -2 4.55 -1.45 5.40 0.90 1.45 1.25 2.15 2.95 5.80 1.60 3.35 1.50 4 -0.75 4 -1.60 0 -2.85 -1.40 -4.50 -5 -1.60 -3.55 -2.05 -4.10 -3.20 -3.75 -0.40 0.10 -1.65 0.35 -2.75 0.55 -2.40 0.35 -2.55 0.55 -2.70 3.45 -0.10 2.10 0 2.25 1.10 2.25 1.25 0 2.10 1.15 1.55 2.05 -0.35 0.60 -3.05 0.55 -3.45 -0.05z m3.10 -11.20 c-0.10 -0.25 -0.40 -0.55 -0.70 -0.65 -0.60 -0.20 -1.10 1.30 -0.75 2.30 0.20 0.55 0.40 0.50 0.95 -0.20 0.35 -0.55 0.60 -1.20 0.50 -1.45z"/>
  <path d="M179.55 448.45 c-1.05 -0.85 -1.10 -1.10 -0.50 -1.50 1.95 -1.20 4.25 0.45 2.65 1.95 -0.80 0.75 -0.70 0.75 -2.15 -0.45z"/>
  <path d="M191.20 447.45 c-1.15 -1.70 -1.80 -2.20 -3.15 -2.35 -2.15 -0.20 -3.75 0.20 -4.75 1.20 -0.75 0.70 -0.80 0.70 -0.80 -0.25 0 -0.65 -0.30 -1.05 -0.80 -1.05 -0.60 0 -0.50 -0.35 0.50 -1.55 0.85 -1 1.15 -1.75 0.90 -2.15 -0.25 -0.30 -0.60 -0.90 -0.80 -1.30 -0.15 -0.40 -0.20 0 -0.05 0.90 0.15 1.15 0 1.70 -0.50 1.90 -0.40 0.20 -0.75 0.60 -0.75 0.95 0 0.35 -0.45 1.15 -1.05 1.80 -0.90 1.05 -1 1.05 -0.70 0.20 0.20 -0.55 0.35 -1.40 0.35 -1.85 0 -0.50 0.15 -0.90 0.35 -0.90 0.25 0 0.30 -0.50 0.20 -1.15 -0.15 -0.65 0.10 -2.05 0.55 -3.10 0.45 -1 0.80 -2.20 0.80 -2.60 0 -0.40 0.35 -1.90 0.75 -3.35 0.95 -3.15 2.55 -4.30 6.10 -4.30 2.80 0 3.65 0.60 3.65 2.60 0 0.75 0.35 2.35 0.75 3.50 0.35 1.20 0.80 2.95 0.90 3.90 0.10 1 0.30 2 0.45 2.30 0.20 0.25 0.40 1.65 0.50 3.05 0.10 1.40 0.35 2.45 0.55 2.30 0.25 -0.15 0.35 0.50 0.25 1.40 -0.10 1.40 -0.40 1.75 -1.45 1.85 -1.10 0.15 -1.60 -0.25 -2.75 -1.95z m1.80 -1.50 c0 -0.90 -1.55 -5.95 -1.85 -5.95 -0.15 0 -0.75 0.50 -1.40 1.10 l-1.15 1.10 1.60 1.05 c0.85 0.55 1.60 1.55 1.70 2.15 0.15 1.10 1.10 1.60 1.10 0.55z m-3.75 -9.15 c-0.35 -1.50 -0.80 -2.95 -1 -3.25 -0.60 -1 -2.20 -0.60 -2.50 0.60 -1.05 4.65 -1.15 5.60 -0.70 6.20 0.85 1 3.10 1.05 4 0.05 0.75 -0.75 0.75 -1.20 0.20 -3.60z"/>
  <path d="M215.60 448.55 c-0.90 -0.60 -1.85 -1.65 -2.10 -2.35 -0.30 -0.70 -0.50 -4.25 -0.50 -7.90 0 -6.05 0.10 -6.80 1.05 -8 0.70 -0.90 1.40 -1.30 2 -1.15 0.55 0.15 0.95 0.10 0.95 -0.10 0 -0.50 6.95 -0.70 8.70 -0.25 2.55 0.60 3.30 2.85 3.30 9.75 0 6.70 -0.35 7.95 -2.60 9.60 -2.10 1.55 -8.55 1.80 -10.80 0.40z m8.35 -9.95 c0.05 -5.50 0.05 -5.65 -1.15 -6.10 -1.35 -0.50 -3.70 -0.20 -4.65 0.60 -0.95 0.75 -0.90 11.05 0.05 11.85 0.35 0.30 1.60 0.60 2.75 0.65 1.10 0.05 2.05 0.30 2.10 0.60 0.05 0.30 0.25 0 0.45 -0.70 0.20 -0.70 0.40 -3.80 0.45 -6.90z"/>
  <path d="M247.60 448.90 c-0.95 -0.95 -0.70 -2.80 0.40 -3.15 0.55 -0.20 2.50 -0.25 4.40 -0.20 l3.35 0.15 0 -2.45 0 -2.40 -2.95 -0.20 c-3.35 -0.20 -4.55 -0.95 -5.60 -3.50 -1.15 -2.65 -0.90 -4.95 0.75 -6.75 1.30 -1.50 1.65 -1.60 5.85 -1.90 3.35 -0.25 4.75 -0.20 5.60 0.35 2.65 1.60 0.55 3.60 -3.80 3.60 -3.45 -0.05 -4.75 0.60 -4.50 2.25 0.10 0.75 0.55 1.10 1.65 1.20 2.85 0.30 5.25 1.15 6.25 2.20 0.50 0.60 0.85 1.25 0.70 1.50 -0.15 0.20 -0.05 0.40 0.25 0.40 0.30 0 0.40 0.35 0.25 0.75 -0.20 0.40 -0.05 0.75 0.30 0.75 0.55 0 0.55 1.35 -0.10 4.05 -0.30 1.35 -1.50 2.55 -3.25 3.30 -2.05 0.80 -8.75 0.85 -9.55 0.05z m10.90 -6.75 c0 -0.85 -0.20 -1.70 -0.45 -1.85 -0.55 -0.35 -1.25 3.45 -0.80 4.25 0.55 0.85 1.25 -0.50 1.25 -2.40z"/>
  <path d="M300.25 449 c-0.60 -0.95 -0.75 -19.15 -0.15 -19.85 0.65 -0.80 3 -0.85 3.80 -0.05 0.35 0.35 0.60 1.95 0.60 3.75 l0 3.15 1.65 0 c2.10 0 3 -1 3.85 -4.20 0.55 -2 0.95 -2.55 2.40 -3.15 1.30 -0.55 1.85 -0.55 2.40 -0.10 1 0.85 0.90 1.35 -1.30 5.75 l-1.95 3.95 1.50 3.25 c0.85 1.80 1.75 3.65 2 4.15 0.30 0.50 0.35 1.10 0.20 1.35 -0.20 0.30 -0.05 0.50 0.20 0.50 0.85 0 0.65 1.50 -0.20 1.80 -1.55 0.60 -3.25 -0.30 -4.25 -2.35 -0.60 -1.10 -0.90 -2.20 -0.75 -2.45 0.15 -0.30 0.10 -0.50 -0.15 -0.50 -0.25 0 -0.75 -0.65 -1.10 -1.50 -1.05 -2.55 -3.45 -2.55 -4.75 0.05 -0.85 1.55 -1 2.60 -0.25 1.45 0.35 -0.55 0.50 -0.05 0.50 1.80 0 1.35 -0.25 2.75 -0.60 3.10 -0.75 0.75 -3.20 0.80 -3.65 0.10z m13 -3.65 c-1 -0.55 -1.45 -0.15 -1.05 0.95 0.25 0.65 0.45 0.70 1.10 0.15 0.70 -0.55 0.70 -0.65 -0.05 -1.10z m-10.55 -7.10 c-0.05 -0.55 -0.15 -1.30 -0.15 -1.60 -0.05 -0.35 -0.25 -0.65 -0.55 -0.65 -0.30 0 -0.50 1.35 -0.50 3.15 0.05 2.95 0.05 3.05 0.70 1.60 0.35 -0.80 0.55 -1.95 0.50 -2.50z m7.25 1.10 c-0.35 -0.75 -0.80 -1.20 -1 -1.05 -0.25 0.15 -0.45 0 -0.45 -0.35 0 -0.35 -0.15 -0.50 -0.30 -0.30 -0.30 0.30 1.90 3.35 2.20 3.10 0.05 -0.05 -0.15 -0.70 -0.45 -1.40z"/>
  <path d="M332.25 448.95 c-0.40 -0.65 0.15 -4.95 0.65 -4.95 0.20 0 0.40 -0.55 0.40 -1.25 0.05 -0.70 0.25 -1.65 0.45 -2.15 0.40 -0.90 0.50 -1.20 1 -4.10 0.60 -3.40 1.85 -6.55 2.90 -7.20 0.60 -0.40 2.40 -0.70 4 -0.70 2.95 0 3.35 0.25 3.60 2.30 0.05 0.50 0.30 1.40 0.60 2.10 0.75 1.80 1.85 7.50 1.50 7.80 -0.15 0.15 -0.75 0 -1.35 -0.30 -1.20 -0.65 -1.70 -0.35 -2.20 1.30 -0.45 1.45 0.90 1.95 2.45 0.90 1.15 -0.75 2.15 -0.25 1.55 0.75 -0.20 0.25 -0.05 0.55 0.25 0.65 0.30 0.10 0.55 1.30 0.60 2.65 0.10 2.45 0.05 2.50 -1.45 2.65 -1.50 0.15 -2.05 -0.45 -2.90 -3 -0.30 -1.05 -4.40 -1.75 -6.25 -1.10 -0.70 0.25 -1.35 0.90 -1.45 1.45 -0.40 2.20 -3.45 3.75 -4.35 2.20z m4.05 -5.80 c1.10 -0.85 1.30 -1.25 0.85 -1.70 -0.30 -0.30 -0.45 -0.90 -0.30 -1.30 0.20 -0.55 0 -0.70 -0.65 -0.55 -0.65 0.10 -1.05 0.80 -1.30 2.35 -0.20 1.25 -0.60 2.45 -0.90 2.75 -0.25 0.25 -0.50 0.95 -0.45 1.55 0 0.80 0.15 0.70 0.70 -0.45 0.35 -0.85 1.25 -2 2.05 -2.65z m6.45 -2.65 c0.55 -0.90 -0.90 -7.05 -1.80 -7.55 -1.15 -0.60 -1.40 -0.15 -2.45 4.40 l-0.85 3.65 2.40 0 c1.30 0 2.50 -0.20 2.70 -0.50z"/>
  <path d="M367.20 448.85 c-0.10 -0.35 -0.15 -5 -0.10 -10.35 l0.15 -9.75 1.70 -0.15 c1.60 -0.15 2.75 0.40 2.85 1.45 0.05 0.25 0.10 1.70 0.15 3.20 0.05 2.70 0.10 2.75 1.50 2.75 2.15 0 3.05 -0.50 3.05 -1.70 0.05 -1.60 1.80 -5.15 2.90 -5.75 0.50 -0.25 1.45 -0.35 2.05 -0.20 1 0.25 1.10 0.50 0.80 2.10 -0.20 0.95 -1 3 -1.80 4.55 -1.70 3.25 -1.75 3.65 -0.50 5.70 1.45 2.30 3.20 7.25 2.85 8.05 -0.45 1.20 -2.65 0.90 -3.75 -0.60 -0.60 -0.70 -1.45 -2.40 -1.95 -3.80 -0.95 -2.75 -2.50 -4.10 -4.10 -3.60 -0.90 0.30 -1 0.75 -1 3.95 0 2.15 -0.25 3.85 -0.60 4.20 -0.80 0.80 -3.85 0.75 -4.20 -0.05z m3.05 -9.80 c0.20 -0.35 0.05 -1.30 -0.30 -2.10 -0.90 -2.30 -1.45 -0.85 -1.40 3.80 l0.05 4 0.65 -2.55 c0.35 -1.40 0.80 -2.85 1 -3.15z"/>
  <path d="M401.75 449.05 c-0.15 -0.30 -0.30 -4.85 -0.35 -10.10 0 -10.70 0.20 -11.50 2.95 -10.60 l1.40 0.50 0 10.20 0 10.20 -1.85 0.15 c-1 0.10 -1.95 -0.10 -2.15 -0.35z"/>
  <path d="M158.75 345.45 c-5.65 -0.45 -8.35 -0.90 -9 -1.50 -0.25 -0.25 -0.80 -0.45 -1.25 -0.45 -1.50 0 -8.55 -4 -11.65 -6.60 -5.85 -4.95 -9.25 -9.80 -12.30 -17.55 -2.50 -6.35 -3.05 -13.20 -1.80 -20.85 0.65 -3.80 3.50 -11 4.35 -11 0.25 0 0.35 -0.20 0.20 -0.45 -0.20 -0.25 1.50 -2.90 3.75 -5.90 5.25 -7 6.95 -8.90 6.95 -7.90 0 0.45 -0.65 1.50 -1.50 2.40 -0.80 0.90 -1.50 1.75 -1.50 2 0 0.20 -0.30 0.35 -0.70 0.35 -0.40 0 -0.85 0.70 -1.05 1.55 -0.20 0.85 -0.65 1.65 -1.05 1.80 -1.60 0.60 -8.65 14.15 -7.35 14.15 0.15 0 -0.05 0.40 -0.50 0.90 -0.95 1.05 -2 11.30 -1.25 12.70 0.20 0.45 0.40 1.60 0.40 2.50 0 0.90 0.45 2.85 1 4.30 0.55 1.45 1 3.15 1 3.85 0 0.70 0.20 1.25 0.40 1.25 0.45 0 1.85 2.50 1.70 3.10 -0.15 0.70 8.20 9.55 11.65 12.35 2.30 1.85 8.95 5 11.25 5.30 1.15 0.15 2.50 0.50 3.05 0.75 1.05 0.60 17.20 1.45 23.60 1.30 2.35 -0.05 3.85 0.15 3.85 0.45 0 0.25 0.20 0.20 0.45 -0.20 0.25 -0.35 0.65 -0.55 0.90 -0.40 0.25 0.15 2.60 0.35 5.20 0.40 2.80 0.05 4.85 0.30 5.05 0.65 0.30 0.40 0.40 0.35 0.40 -0.05 0 -0.45 0.85 -0.65 2.45 -0.65 2 0 2.50 0.15 2.70 1 0.25 1 0.05 1 -17.30 0.90 -9.70 -0.05 -19.60 -0.25 -22.10 -0.45z"/>
  <path d="M199.30 345.60 c0.30 -0.20 0.65 -0.65 0.75 -1 0.15 -0.40 0.40 -0.25 0.85 0.40 0.55 0.90 0.50 1 -0.75 1 -0.80 0 -1.15 -0.20 -0.85 -0.40z"/>
  <path d="M295.65 345 c-0.10 -0.95 0.20 -1 7 -1 8 0 21.20 -0.45 23.80 -0.75 3.50 -0.45 5.45 -4.10 3.80 -7.20 -0.40 -0.85 -0.65 -1.80 -0.50 -2.05 0.15 -0.30 0.10 -0.50 -0.20 -0.50 -0.75 0 -2.50 -1.80 -6.10 -6.25 -4.55 -5.60 -7.95 -10.15 -8.10 -10.90 -0.05 -0.30 -0.40 -0.85 -0.80 -1.15 -0.45 -0.35 -0.50 -0.65 -0.15 -0.85 0.55 -0.40 1.40 0.60 11.05 12.65 7 8.70 7.55 9.60 7.55 12.20 0 1.70 -1.90 5.10 -2.70 4.85 -0.25 -0.10 -0.60 0.15 -0.85 0.55 -0.55 0.90 -6.80 1.30 -21.45 1.35 -11.95 0.05 -12.30 0 -12.35 -0.95z"/>
  <path d="M201.85 345.15 c-0.70 -0.70 -0.25 -1.05 2 -1.65 1.95 -0.45 3 -1.20 5.50 -3.90 1.75 -1.85 3.15 -3.60 3.15 -3.90 0 -0.30 0.45 -0.95 1.05 -1.50 0.60 -0.50 1.45 -1.75 1.95 -2.70 0.50 -0.95 2 -2.90 3.35 -4.30 2.95 -3.10 4.15 -4.60 4.15 -5.15 0 -0.20 0.85 -1.20 1.90 -2.15 1 -0.95 2.40 -2.50 3.10 -3.45 0.70 -0.95 2.10 -2.55 3.15 -3.60 1 -1.05 1.85 -2.05 1.85 -2.30 0 -0.20 0.50 -0.95 1.15 -1.65 0.60 -0.65 1.45 -1.85 1.85 -2.65 0.40 -0.80 1.50 -1.85 2.35 -2.40 0.90 -0.50 1.55 -1.15 1.40 -1.35 -0.15 -0.20 0.10 -0.50 0.50 -0.70 0.40 -0.15 0.75 -0.55 0.75 -0.90 0.05 -0.90 1.55 -2.60 2.75 -3.10 1.50 -0.65 2.25 -0.80 5.55 -1.15 2.95 -0.25 3.05 -0.25 5 1.65 1.05 1.05 2.15 1.90 2.35 1.90 0.20 0.05 1.05 1 1.80 2.15 0.80 1.15 1.55 2 1.70 1.85 0.15 -0.15 0.55 0.25 0.90 0.90 0.30 0.60 1.05 1.60 1.65 2.20 0.60 0.60 1.75 1.95 2.60 3 0.85 1.05 2.95 3.60 4.65 5.65 1.65 2 3.05 4.10 3.05 4.65 0 0.55 0.40 1.10 0.95 1.25 1 0.25 1.80 1.55 1.30 2.10 -0.40 0.35 -1.65 -1.10 -11.60 -13.55 -9.70 -12.10 -11.60 -13.40 -16.65 -11.25 -2.45 1.05 -1.95 0.50 -19.05 21.85 -12.40 15.50 -19.55 23.90 -20.65 24.20 -1.45 0.40 -5.05 0.35 -5.45 -0.05z"/>
  <path d="M292.25 344.90 c-1.65 -0.85 -6.45 -6.90 -5.90 -7.45 0.30 -0.30 0.85 0 1.45 0.85 1.55 2.20 3.85 4.25 5.60 5 0.85 0.40 1.60 1.05 1.60 1.45 0 0.85 -1.30 0.95 -2.75 0.15z"/>
  <path d="M282.55 333.75 c-1.45 -1.75 -2.50 -3.45 -2.30 -3.75 0.20 -0.30 1.05 0.35 1.95 1.45 0.95 1.10 2.05 2.35 2.50 2.80 0.65 0.70 1.15 2.75 0.65 2.75 -0.10 0 -1.35 -1.45 -2.80 -3.25z"/>
  <path d="M278.65 328.90 c-1.05 -1.35 -1.20 -1.90 -0.50 -1.60 0.40 0.15 0.85 0.70 1 1.25 0.30 1.10 0.15 1.20 -0.50 0.35z"/>
  <path d="M276.05 325.90 c-0.85 -1.40 0 -2.20 1.10 -1 0.70 0.80 0.75 1.05 0.20 1.50 -0.50 0.40 -0.80 0.30 -1.30 -0.50z"/>
  <path d="M169.75 308.65 c-3.85 -2 -5.85 -5 -5.85 -8.85 -0.05 -2.95 0.35 -3.90 3.55 -8.05 1.25 -1.65 2.30 -3.15 2.30 -3.30 0 -0.20 0.80 -1.10 1.80 -2 1 -0.95 2 -2.20 2.15 -2.85 0.20 -0.60 0.60 -1 0.85 -0.85 0.25 0.20 0.45 0 0.45 -0.40 0 -0.35 1.45 -2.20 3.25 -4.10 1.80 -1.85 3.25 -3.50 3.25 -3.70 0 -0.15 1.05 -1.40 2.25 -2.80 1.25 -1.35 2.25 -2.70 2.25 -3 0 -0.25 0.90 -1.45 2 -2.65 1.50 -1.60 2 -2.55 2 -3.75 0 -1.40 -1 -3.60 -2 -4.35 -0.20 -0.15 -0.90 -1.05 -1.55 -2.05 -2.40 -3.60 -6.45 -8.35 -8.20 -9.50 -0.95 -0.65 -1.75 -1.45 -1.75 -1.75 0 -0.30 -0.65 -1.50 -1.40 -2.65 -1.50 -2.25 -3.50 -3.55 -5.40 -3.55 -1.30 0 -3.75 0.95 -4.35 1.75 -0.25 0.30 -0.35 0.10 -0.25 -0.40 0.10 -0.50 0.30 -0.90 0.55 -0.90 0.20 0.05 0.80 -0.40 1.35 -0.95 1.40 -1.40 4.40 -1.30 6.55 0.15 0.90 0.60 4.30 4.35 7.60 8.35 3.25 4 6.60 8.10 7.50 9.15 2.80 3.40 3.35 4.50 3.35 7 0 2.85 0.10 2.65 -8.45 13.35 -8.80 10.95 -11.65 14.25 -12.20 14.10 -0.20 -0.05 -0.30 0.05 -0.15 0.30 0.10 0.20 -0.65 1.50 -1.75 2.85 -3.55 4.45 -4.20 7.30 -2.50 10.70 1.15 2.15 2.80 3.45 5.20 3.90 0.85 0.15 1.85 0.50 2.15 0.70 0.30 0.25 0.75 0.25 0.95 0.05 0.25 -0.20 0.25 -0.05 0.05 0.30 -0.50 0.85 -3.75 0.70 -5.55 -0.25z"/>
  <path d="M176.20 308.95 c-0.15 -0.25 0.30 -0.45 1 -0.45 1.55 0 1.70 0.30 0.30 0.65 -0.55 0.15 -1.15 0.05 -1.30 -0.20z"/>
  <path d="M186.75 308.70 c0.55 -0.40 1.55 -0.90 2.25 -1.05 0.70 -0.20 1.55 -0.65 1.95 -1 0.35 -0.40 0.80 -0.55 0.95 -0.40 0.50 0.50 -0.80 1.40 -3.50 2.30 -2.10 0.75 -2.45 0.75 -1.65 0.15z"/>
  <path d="M309.10 307.75 c-1.75 -0.95 -2.45 -1.75 -1.55 -1.75 0.85 0 1.45 0.45 2.40 1.65 0.75 1 0.70 1 -0.85 0.10z"/>
  <path d="M192.50 305.15 c0 -0.25 5.95 -7.80 8.60 -10.90 0.70 -0.85 2.10 -2.55 6.10 -7.65 0.40 -0.45 2 -2.40 3.60 -4.35 1.60 -1.90 3.10 -3.70 3.30 -4 1.70 -2.25 5.85 -7.30 7 -8.45 0.75 -0.85 1.40 -1.70 1.40 -1.90 0 -0.25 0.40 -1 0.85 -1.75 1.25 -1.90 1.10 -4.05 -0.50 -7.25 -0.80 -1.60 -1.60 -2.90 -1.80 -2.90 -0.15 0 -1.40 -1.40 -2.80 -3.10 -1.35 -1.75 -3.10 -3.80 -3.85 -4.65 -0.75 -0.80 -3.30 -3.85 -5.65 -6.75 -2.40 -2.90 -4.70 -5.70 -5.15 -6.25 -0.50 -0.55 -1.85 -2.25 -3.10 -3.75 -1.25 -1.50 -2.35 -2.85 -2.50 -3 -0.15 -0.15 -2.15 -2.50 -4.40 -5.25 -2.25 -2.75 -5.05 -6.10 -6.25 -7.40 -1.15 -1.35 -2.30 -2.90 -2.60 -3.50 -0.25 -0.60 -1.20 -1.75 -2 -2.60 -0.85 -0.80 -2.40 -2.60 -3.50 -3.95 -1.10 -1.35 -4.25 -5.20 -7.05 -8.50 -2.75 -3.35 -5.85 -7.15 -6.90 -8.55 -1 -1.35 -2.65 -3.40 -3.55 -4.50 -0.95 -1.10 -4.15 -5.05 -7.10 -8.75 -2.90 -3.70 -5.60 -7.05 -6 -7.40 -0.35 -0.35 -0.65 -0.85 -0.65 -1.10 0 -0.20 -0.70 -1.15 -1.55 -2.05 -0.90 -0.95 -2.40 -2.70 -3.40 -3.95 -1 -1.25 -2.10 -2.55 -2.45 -2.90 -0.35 -0.40 -1.25 -1.50 -2 -2.50 -0.75 -1.05 -1.45 -1.95 -1.60 -2.10 -0.15 -0.15 -1.35 -1.60 -2.60 -3.25 -1.30 -1.65 -2.65 -3.35 -3 -3.75 -2.75 -3.15 -6.40 -8.05 -6.40 -8.55 0 -0.30 -0.35 -0.85 -0.80 -1.15 -1.05 -0.75 -0.95 -5.50 0.10 -6.20 0.30 -0.20 0.65 -0.75 0.85 -1.20 0.15 -0.50 0.75 -0.90 1.25 -0.90 0.50 0 1.15 -0.25 1.50 -0.60 0.40 -0.40 5.40 -0.55 17.80 -0.60 16.65 -0.05 17.25 0 18.60 1 2.30 1.70 11.95 13.80 10.50 13.15 -0.70 -0.35 -1.15 -0.75 -1.05 -0.95 0.15 -0.20 -0.50 -0.95 -1.40 -1.65 -2.55 -1.95 -4.35 -3.75 -4.35 -4.35 0 -0.30 -0.35 -0.65 -0.75 -0.80 -0.40 -0.15 -1 -1.05 -1.35 -2 -0.30 -0.95 -0.90 -1.70 -1.30 -1.70 -0.40 0 -1.25 -0.45 -1.95 -1 -1.15 -0.90 -2.05 -0.95 -16.30 -0.90 -8.30 0 -15.95 0.25 -17.05 0.50 -1.80 0.45 -4.60 2.75 -4.05 3.30 0.15 0.15 0 0.55 -0.25 0.85 -0.60 0.75 0.35 3.70 1.75 5.40 0.55 0.65 1.25 1.55 1.50 1.95 0.30 0.45 2.10 2.65 4.05 4.95 1.90 2.30 4.05 5 4.75 5.95 1.30 1.85 7.10 9.10 8.40 10.50 1.15 1.20 2.15 2.55 3.20 4.20 0.55 0.75 1.55 2.05 2.25 2.80 1.95 2.05 3.10 3.45 3.10 3.80 0 0.55 2.65 3.80 8 9.95 4.35 5 4.80 5.50 6.50 8 2.25 3.30 6.40 8.40 13.70 16.70 1.55 1.75 2.80 3.45 2.80 3.75 0 0.35 1.10 1.75 2.40 3.10 1.35 1.35 3.85 4.15 5.60 6.20 1.75 2.05 3.75 4.35 4.45 5.10 1.90 2 2.30 2.50 3.75 4.80 0.70 1.15 2.20 2.60 3.30 3.20 1.70 0.95 2.60 2.10 2.75 3.40 0.05 0.65 8.70 11.50 10.95 13.80 1.45 1.50 2.80 3.15 2.80 3.50 0 0.10 0.60 0.85 1.30 1.60 2 2.15 2.80 4.50 2.60 7.70 -0.20 2.45 -0.60 3.40 -2.70 6.50 -1.35 2 -2.55 3.75 -2.75 3.90 -0.15 0.15 -0.75 1.05 -1.35 2 -0.55 1 -1.70 2.35 -2.45 3.05 -0.75 0.70 -2.40 2.45 -3.65 3.90 -1.25 1.45 -2.80 3.25 -3.45 4 -1.35 1.50 -2.55 4.05 -2.55 5.55 0 0.55 -0.35 1.05 -0.75 1.05 -1.55 0.15 -1.75 0.20 -2.60 1.05 -1.20 1.10 -2.15 2.30 -2.15 2.65 0 0.30 -0.40 0.85 -3 3.65 -0.95 1.05 -2.30 2.65 -2.95 3.50 -1.10 1.50 -2.05 2.05 -2.05 1.25z"/>
  <path d="M306.50 305 c-0.40 -0.25 -0.75 -0.75 -0.75 -1.10 0 -0.35 -0.50 -0.85 -1.10 -1.15 -1.30 -0.55 -1.95 -1.75 -1 -1.75 0.35 0 1.50 1 2.50 2.25 1.85 2.15 1.95 2.75 0.35 1.75z"/>
  <path d="M301.25 298.55 c0.15 -0.30 -0.15 -0.70 -0.60 -1 -0.80 -0.45 -0.80 -0.50 -0.10 -0.55 0.95 0 2.10 1.20 1.60 1.65 -0.50 0.55 -1.25 0.40 -0.90 -0.10z"/>
  <path d="M298.80 295.35 c-1.15 -0.70 -3.25 -2.95 -3.30 -3.45 0 -0.90 1.10 -0.30 2.75 1.45 2.20 2.35 2.40 3.15 0.55 2z"/>
  <path d="M292.15 288.40 c-0.65 -0.30 -1.15 -0.85 -1.15 -1.20 0 -0.60 -1.45 -2.50 -5.40 -7.15 -2.60 -3.05 -3 -3.80 -1.80 -3.40 0.85 0.30 0.85 0.30 0.10 -0.25 -0.45 -0.35 -1.25 -0.90 -1.75 -1.25 -0.85 -0.55 -0.85 -0.55 0.15 -0.50 0.65 0.05 2 1.30 3.60 3.35 1.45 1.80 3.10 3.85 3.75 4.60 0.65 0.75 1.60 1.95 2.15 2.70 0.50 0.70 1.25 1.60 1.60 1.95 0.65 0.75 0.80 1.75 0.25 1.70 -0.25 0 -0.90 -0.25 -1.50 -0.55z"/>
  <path d="M280.45 273.40 c-0.35 -1.25 -0.25 -1.80 0.35 -1.55 0.80 0.30 0.95 1.65 0.20 1.65 -0.25 0 -0.50 -0.05 -0.55 -0.10z"/>
  <path d="M138.50 272.55 c0 -0.55 2.50 -4.15 3.50 -5.05 0.15 -0.15 1.05 -1.25 2 -2.50 3.15 -4.10 20.10 -24.50 20.35 -24.50 0.15 0 -0.10 0.50 -0.55 1.15 -0.45 0.60 -1.35 1.90 -2 2.85 -0.70 0.95 -1.75 2.35 -2.40 3.10 -0.65 0.75 -1.65 2 -2.25 2.75 -0.60 0.75 -1.80 2.15 -2.60 3.05 -0.85 0.90 -1.55 1.85 -1.55 2.10 0 0.25 -0.30 0.75 -0.65 1.10 -0.35 0.35 -1.20 1.45 -1.85 2.40 -0.65 0.95 -1.45 1.90 -1.75 2.10 -0.25 0.20 -0.30 0.40 -0.05 0.40 0.25 0 -0.75 1.20 -2.25 2.65 -3.15 3 -5.45 5.65 -5.45 6.25 0 0.25 -0.55 0.95 -1.25 1.60 -0.75 0.70 -1.25 0.90 -1.25 0.55z"/>
  <path d="M273.30 264.75 c-0.55 -0.40 -0.80 -0.90 -0.65 -1.10 0.45 -0.45 2.90 0.90 2.55 1.45 -0.35 0.55 -0.80 0.50 -1.90 -0.35z"/>
  <path d="M269.70 259.55 c0.40 -0.65 -1.05 -1.70 -1.75 -1.25 -0.40 0.25 -0.50 0.10 -0.30 -0.45 0.15 -0.45 0 -0.90 -0.45 -1.05 -0.45 -0.15 -0.65 -0.50 -0.50 -0.75 0.15 -0.25 -0.05 -0.60 -0.45 -0.75 -0.40 -0.15 -0.70 -0.50 -0.65 -0.85 0.10 -0.30 -0.30 -0.80 -0.85 -1.10 -0.50 -0.35 -1.40 -1.15 -2 -1.75 -0.55 -0.65 -1.55 -1.80 -2.25 -2.55 -2.25 -2.40 -8 -9.50 -8 -9.85 0 -0.15 -0.60 -1.05 -1.35 -1.95 -0.80 -0.90 -1.85 -2.20 -2.35 -2.95 -0.55 -0.75 -1.40 -1.85 -1.90 -2.40 -1 -1.15 -1.10 -1.70 -0.45 -2.10 0.30 -0.20 8.35 9.40 13.70 16.40 0.60 0.80 2.80 3.50 4.85 6 5.45 6.60 6.25 7.80 4.95 7.80 -0.25 0 -0.40 -0.20 -0.25 -0.45z"/>
  <path d="M243.85 227.30 c-0.50 -0.40 -0.70 -0.85 -0.45 -1 0.25 -0.15 0.85 0.15 1.35 0.70 1.05 1.15 0.45 1.30 -0.90 0.30z"/>
  <path d="M241.25 225 c-0.15 -0.25 -0.15 -0.75 0.05 -1.05 0.30 -0.55 1.15 0.30 1.20 1.20 0 0.50 -0.90 0.45 -1.25 -0.15z"/>
  <path d="M239.50 222 c-0.70 -0.50 -1.25 -1.20 -1.25 -1.50 0 -0.30 -0.55 -1 -1.25 -1.50 -0.90 -0.70 -1 -1 -0.45 -1 0.70 0 1.85 1.05 4.10 3.85 1.10 1.40 0.55 1.45 -1.15 0.15z"/>
  <path d="M233.60 215.40 c-0.35 -0.35 -0.60 -0.80 -0.60 -1.05 0 -0.25 -0.55 -0.90 -1.25 -1.45 -0.70 -0.55 -1.15 -1.15 -1 -1.40 0.15 -0.25 -0.10 -0.65 -0.55 -0.90 -0.60 -0.35 -0.65 -0.55 -0.25 -0.85 0.35 -0.20 0.65 -0.25 0.75 -0.20 0.05 0.10 1.15 1.45 2.45 3 1.30 1.55 2.20 2.95 2 3.10 -0.45 0.50 -0.85 0.45 -1.55 -0.25z"/>
  <path d="M228.60 208.55 c-0.55 -0.35 -0.55 -0.45 0.05 -0.70 0.45 -0.15 0.90 0.05 1.05 0.45 0.30 0.80 -0.10 0.90 -1.10 0.25z"/>
  <path d="M225 204.05 c-1.50 -1.45 -1.95 -2.10 -1.30 -2 0.90 0.20 4.25 3.80 3.75 4.05 -0.10 0.10 -1.20 -0.85 -2.45 -2.05z"/>
  <path d="M222.30 201.05 c-0.85 -0.30 -0.85 -0.40 -0.15 -0.70 0.40 -0.15 1.05 0.05 1.35 0.45 0.65 0.75 0.30 0.85 -1.20 0.25z"/>
  <path d="M218.25 195.85 c-1.25 -0.75 -1.75 -1.45 -1.45 -1.95 0.15 -0.25 -0.10 -0.55 -0.50 -0.70 -0.45 -0.15 -0.65 -0.50 -0.50 -0.75 0.15 -0.25 -0.15 -0.45 -0.60 -0.45 -0.50 0 -0.75 -0.10 -0.60 -0.25 0.10 -0.15 -0.75 -1.25 -1.95 -2.50 -1.20 -1.25 -2.05 -2.50 -1.90 -2.75 0.20 -0.30 -0.05 -0.50 -0.45 -0.50 -0.40 0 -1 -0.45 -1.30 -1 -0.30 -0.55 -0.40 -1 -0.25 -1 0.15 0 -0.45 -0.70 -1.35 -1.50 -1.40 -1.30 -1.50 -1.50 -0.60 -1.40 0.65 0.10 3 2.60 6.25 6.65 2.85 3.55 5.60 7 6.10 7.60 1 1.25 0.65 1.45 -0.90 0.50z"/>
  <path d="M204.30 179.40 c-0.40 -0.60 -0.65 -1.25 -0.50 -1.50 0.15 -0.20 -0.20 -0.40 -0.75 -0.40 -0.60 0 -1.05 -0.35 -1.05 -0.75 0 -0.40 0.20 -0.75 0.45 -0.75 1.05 0 2.05 0.65 2.05 1.30 0 0.40 0.15 0.70 0.40 0.70 0.20 0 0.75 0.60 1.25 1.25 0.85 1.20 0.85 1.25 -0.10 1.25 -0.55 0 -1.35 -0.50 -1.75 -1.10z"/>
  <path d="M200.65 174.40 c-0.80 -1.30 -0.60 -1.90 0.40 -1.40 0.50 0.30 0.95 0.85 0.95 1.25 0 0.90 -0.80 1 -1.35 0.15z"/>
  <path d="M197.75 171 c-0.55 -0.85 0.25 -1.60 1.05 -0.95 0.35 0.30 0.55 0.75 0.40 1 -0.35 0.60 -1.05 0.55 -1.45 -0.05z"/>
  <path d="M194 166.50 c-0.60 -0.40 -0.55 -0.50 0.40 -0.50 0.60 0 1.10 0.25 1.10 0.50 0 0.65 -0.55 0.65 -1.50 0z"/>
  <path d="M193.30 165.05 c-0.85 -0.30 -0.85 -0.40 -0.15 -0.70 0.40 -0.15 1.05 0.05 1.35 0.45 0.65 0.75 0.30 0.85 -1.20 0.25z"/>
  <path d="M190.75 162 c-1.35 -0.90 -1.40 -1 -0.45 -1 0.60 0 1.35 0.35 1.70 0.75 1 1.20 0.35 1.30 -1.25 0.25z"/>
  <path d="M188.60 159.65 c-0.90 -0.20 -1.10 -0.50 -1 -1.55 0.10 -1.10 -0.10 -1.40 -1 -1.50 -0.65 -0.10 -1.05 -0.45 -0.95 -0.75 0.20 -0.65 -1.45 -2.35 -2.30 -2.35 -0.25 0 -0.35 -0.35 -0.15 -0.75 0.15 -0.45 -0.15 -0.95 -0.75 -1.25 -0.55 -0.30 -0.85 -0.75 -0.70 -1.05 0.20 -0.25 0 -0.45 -0.40 -0.45 -0.80 0 -3.85 -3.20 -3.85 -4 0 -1.65 2.35 0.15 4.55 3.50 0.50 0.70 1.55 2.05 2.45 3 0.90 0.95 2.20 2.55 2.90 3.50 0.75 0.95 1.45 1.85 1.60 2 0.85 0.85 1.55 2 1.20 1.95 -0.25 -0.05 -0.95 -0.20 -1.60 -0.30z"/>
  <path d="M175.50 143.50 c0 -0.25 0.30 -0.50 0.70 -0.50 0.40 0 0.90 0.25 1.05 0.50 0.15 0.30 -0.15 0.50 -0.70 0.50 -0.60 0 -1.05 -0.20 -1.05 -0.50z"/>
 </g>
</svg>